<svg xmlns="http://www.w3.org/2000/svg" viewBox="0 0 122.9 114"><style>.st0{fill:#00b4b1;}</style><path class="st0" d="M113.6 0H9.9C2.9 0 0 2.9 0 9.8c0 24.4 0 48.7 0 73.1 0 6.9 2.8 9.7 9.6 9.7 13 0 26 0 39 0 0 0.7-0.1 1.5-0.1 2.2 -0.2 2.2-0.2 4.3-0.5 6.4 -0.1 0.6-0.2 1.2-0.4 1.8 -0.6 1.9-1.9 3.5-3.7 4.6l-2 1.2c-1.2 0.7-2.4 1.4-3.5 2.1 -0.5 0.3-1 0.8-1.3 1.3 -0.4 0.8 0 1.5 0.9 1.7 0.3 0 0.6 0 0.9 0 15.1 0 30.3 0 45.4 0 0.8 0 1.9 0.3 2.1-0.9s-0.5-1.6-1.3-2.1l-3.7-2.2c-0.5-0.3-0.9-0.6-1.4-0.8 -1.8-1-3.2-2.6-3.9-4.5 -0.4-1-0.6-2-0.7-3 -0.2-2.6-0.4-5.2-0.6-7.8h38.7c6.4 0 9.4-3 9.4-9.5V9.3C122.9 3.1 119.8 0 113.6 0zM66 85.7c-1.4 2.5-4.5 3.5-7 2.1 -0.9-0.5-1.6-1.2-2.1-2.1 -0.4-0.8-0.7-1.8-0.7-2.7 0-2.9 2.3-5.3 5.2-5.3s5.3 2.3 5.3 5.2c0 0.1 0 0.2 0 0.4C66.7 84.1 66.4 85 66 85.7zM112.8 73.1C78.7 73 44.5 73 10.4 73c-3.6 0-3.7-0.1-3.7-3.7V11c0-4.2 0-4.2 4.3-4.2 12.3 0 80.3 0 97.1 0h4.2c3.6 0 3.8 0.1 3.8 3.6 0 19.7 0 39.4 0.1 59.1C116.2 72.1 115.5 73.1 112.8 73.1L112.8 73.1z"/><path class="st0" d="M55.2 57.5c0-0.1 0-0.2 0-0.3 0.1-0.4 0.2-0.8 0.4-1.1 2.8-7.3 5.5-14.5 8.3-21.8 1-2.7 2-5.4 3.1-8 0.4-1 1.4-1.7 2.5-1.5 1.1 0.1 1.9 1.1 2 2.2 0 0.4-0.1 0.9-0.2 1.3 -2.1 5.4-4.2 10.9-6.2 16.3 -1.7 4.6-3.5 9.1-5.2 13.7 -0.3 0.9-1.1 1.5-2 1.6 -0.5 0.1-1.1-0.1-1.5-0.4C55.6 59.1 55.2 58.3 55.2 57.5z"/><path class="st0" d="M53.7 58c-0.8 1-2.2 1.3-3.3 0.5 -0.1-0.1-0.3-0.2-0.4-0.4 -2.5-2.5-5.1-5.1-7.6-7.6 -2.1-2.1-4.2-4.2-6.2-6.3 -0.3-0.4-0.6-0.7-0.9-1.1l0 0c0 0-0.1-0.1-0.1-0.1 -0.4-0.5-0.4-1.2 0-1.7l0 0 0.9-1c0.6-0.6 1.2-1.3 1.8-1.9 4-4.1 8.1-8.1 12.1-12.2 0.7-0.8 1.9-1 2.8-0.5 0.9 0.5 1.4 1.6 1.2 2.6 -0.2 0.5-0.5 1-0.9 1.4 -3.5 3.6-7.1 7.2-10.7 10.8 -0.5 0.5-1.1 1-1.7 1.6 0.2 0.2 0.4 0.4 0.5 0.6l11.9 12C54.2 55.6 54.4 57 53.7 58z"/><path class="st0" d="M73.3 57.9c0.8 1 2.2 1.3 3.3 0.5 0.1-0.1 0.3-0.2 0.4-0.3 2.5-2.5 5-5.1 7.6-7.6 2.1-2.1 4.2-4.2 6.2-6.3 0.3-0.4 0.7-0.8 0.9-1.2l0 0c0 0 0.1-0.1 0.1-0.1 0.4-0.5 0.4-1.2-0.1-1.7l0 0 -0.9-1c-0.6-0.6-1.2-1.2-1.8-1.8 -4-4.1-8-8.1-12.1-12.2 -0.7-0.8-1.9-1-2.9-0.5 -0.9 0.5-1.4 1.6-1.1 2.6 0.2 0.5 0.5 1 0.9 1.4 3.5 3.6 7.1 7.2 10.7 10.8 0.5 0.5 1.1 1 1.7 1.6l-0.6 0.6c-4 4-8 8-11.9 12C72.7 55.5 72.5 56.9 73.3 57.9z"/><path class="st0" d="M26.5 30.3c0.2-0.9 0.3-1.9 0.5-2.8 0-0.2 0-0.4-0.2-0.5 -0.6-0.6-1.3-1.3-1.9-1.9 -0.1-0.1-0.3-0.4-0.3-0.5 0.1-0.2 0.3-0.3 0.5-0.4 0.9-0.1 1.8-0.3 2.6-0.4 0.2 0 0.4-0.2 0.5-0.3 0.4-0.8 0.8-1.6 1.2-2.4 0.1-0.2 0.3-0.4 0.5-0.4s0.4 0.2 0.5 0.4c0.4 0.8 0.8 1.5 1.2 2.3 0.1 0.2 0.3 0.4 0.6 0.4 0.9 0.1 1.7 0.2 2.6 0.4 0.2 0 0.4 0.2 0.5 0.4 0 0.1-0.1 0.4-0.2 0.5 -0.6 0.6-1.2 1.2-1.9 1.8 -0.2 0.2-0.3 0.4-0.2 0.6 0.2 0.8 0.3 1.6 0.4 2.4 0 0.1 0 0.3 0 0.4 0 0.5-0.3 0.7-0.7 0.4 -0.8-0.4-1.6-0.9-2.5-1.3 -0.2-0.1-0.4-0.1-0.6 0 -0.8 0.4-1.6 0.9-2.5 1.3C26.7 31 26.5 30.9 26.5 30.3z"/><path class="st0" d="M39.2 24.4c0.1-0.9 0.2-1.8 0.3-2.7 0-0.2 0-0.3-0.1-0.5 -0.4-0.6-0.8-1.2-1.2-1.8C38 19.4 38 19.2 38 19c0.1-0.2 0.2-0.3 0.3-0.3 0.5-0.1 1.1-0.2 1.6-0.4 0.1-0.1 0.3-0.2 0.3-0.3 0.3-0.8 0.5-1.5 0.8-2.3 0-0.2 0.2-0.4 0.3-0.4s0.2 0.2 0.3 0.4c0.3 0.7 0.5 1.5 0.7 2.2 0.1 0.3 0.2 0.4 0.4 0.4 0.5 0.1 1.1 0.2 1.6 0.4 0.2 0.1 0.3 0.2 0.3 0.3 0 0.2 0 0.4-0.2 0.5 -0.4 0.6-0.8 1.2-1.2 1.7 -0.1 0.2-0.2 0.4-0.1 0.6 0.1 0.8 0.2 1.5 0.3 2.3 0 0.1 0 0.3 0 0.4 0 0.4-0.2 0.6-0.4 0.4 -0.5-0.4-1-0.8-1.5-1.2 -0.1-0.1-0.3-0.1-0.4 0 -0.5 0.4-1 0.8-1.5 1.2C39.3 25.1 39.1 24.9 39.2 24.4z"/></svg>