<svg xmlns="http://www.w3.org/2000/svg" viewBox="0 0 71.6 79.9"><style>.st0{fill:none;}.st1{fill:#1c1d25;}</style><path class="st0" d="M39.1 73.9c-0.1 0-0.3 0-0.3 0.3s0.1 0.3 0.4 0.3 0.2-0.2 0.2-0.3C39.4 74 39.3 73.9 39.1 73.9 39.2 73.9 39.1 73.9 39.1 73.9z"/><path class="st0" d="M39.2 70.2c0.1 0 0.2-0.2 0.2-0.4s-0.2-0.2-0.3-0.2 -0.3 0.1-0.2 0.3S39 70.3 39.2 70.2z"/><path class="st0" d="M38.8 76.3c0 0.2 0.1 0.3 0.3 0.3 0 0 0.1 0 0.1 0 0.2 0 0.2-0.2 0.2-0.3 0-0.1-0.1-0.2-0.2-0.2 0 0-0.1 0-0.1 0C39 76.1 38.8 76.1 38.8 76.3z"/><path class="st0" d="M39.2 72.3c0.2 0 0.2-0.2 0.2-0.4s-0.2-0.2-0.3-0.2 -0.3 0.1-0.3 0.3C38.8 72.2 38.9 72.4 39.2 72.3 39.1 72.4 39.2 72.3 39.2 72.3z"/><path class="st0" d="M38 77.8c0.2 0 0.4-0.1 0.3-0.4s-0.2-0.2-0.4-0.2 -0.1 0.2-0.2 0.3S37.8 77.8 38 77.8z"/><path class="st0" d="M40.1 77.1c-0.2 0-0.2 0.2-0.2 0.3s0 0.3 0.3 0.3 0.4-0.1 0.3-0.3S40.3 77.2 40.1 77.1z"/><path class="st0" d="M40.1 71.3c0.2 0.1 0.3 0 0.4-0.2 0.1-0.2 0-0.3-0.2-0.4 -0.1-0.1-0.3-0.1-0.4 0.1S39.8 71.2 40.1 71.3z"/><path class="st0" d="M40.1 69.1c0.2 0 0.4-0.1 0.3-0.3s-0.2-0.2-0.4-0.3 -0.2 0.2-0.2 0.3S39.9 69.1 40.1 69.1z"/><path class="st0" d="M40.4 73.1c0-0.2-0.2-0.2-0.4-0.2s-0.1 0.2-0.1 0.3 0.1 0.3 0.3 0.3S40.5 73.3 40.4 73.1z"/><path class="st0" d="M35.8 77.8c0.1 0 0.3 0 0.3-0.3s-0.1-0.3-0.3-0.4 -0.2 0.2-0.2 0.3S35.6 77.8 35.8 77.8z"/><path class="st0" d="M37 69.6c-0.2 0-0.3 0-0.3 0.2 0 0.2 0.1 0.3 0.2 0.4 0 0 0.1 0 0.1 0 0.2 0 0.3-0.1 0.3-0.3S37.2 69.6 37 69.6z"/><path class="st0" d="M37 72.3c0.2 0 0.2-0.2 0.2-0.4s-0.2-0.2-0.3-0.2 -0.3 0.1-0.3 0.3C36.6 72.2 36.7 72.4 37 72.3 36.9 72.4 37 72.3 37 72.3z"/><path class="st0" d="M37 68c0.2 0 0.2-0.2 0.2-0.4s-0.1-0.2-0.3-0.2 -0.3 0-0.3 0.3S36.8 68.1 37 68z"/><path class="st0" d="M40.4 75.2c0-0.2-0.2-0.2-0.4-0.2s-0.1 0.2-0.1 0.3 0.1 0.3 0.3 0.3S40.5 75.5 40.4 75.2z"/><path class="st0" d="M35.9 75.6c0.2 0 0.3-0.1 0.3-0.3 0-0.2-0.1-0.3-0.3-0.3 -0.3 0-0.3 0.2-0.3 0.4S35.7 75.6 35.9 75.6z"/><path class="st0" d="M38.3 75.2c0-0.2-0.2-0.2-0.4-0.3s-0.2 0.2-0.2 0.3 0 0.3 0.3 0.3S38.3 75.5 38.3 75.2z"/><path class="st0" d="M36.9 76.1c-0.2 0-0.3 0.1-0.3 0.3 0 0.2 0.1 0.3 0.3 0.3 0 0 0.1 0 0.1 0 0.2 0 0.2-0.2 0.2-0.4S37.1 76.1 36.9 76.1z"/><path class="st0" d="M37 73.9c-0.2 0-0.3 0-0.3 0.2 0 0.2 0.1 0.3 0.2 0.4 0 0 0.1 0 0.1 0 0.2 0 0.3-0.1 0.3-0.3S37.2 73.9 37 73.9z"/><path class="st0" d="M38 72.8c-0.2 0-0.3 0-0.3 0.2s0 0.4 0.3 0.4 0.3 0 0.3-0.4C38.2 72.9 38.2 72.9 38 72.8z"/><path class="st0" d="M43.4 73.9c-0.1 0-0.3 0-0.3 0.2s0.1 0.4 0.3 0.4 0.2-0.2 0.3-0.3S43.6 73.9 43.4 73.9z"/><path class="st0" d="M46.5 68.4c0 0-0.1 0-0.2 0 0 0.2 0 0.4 0 0.6h0.5C47 68.8 46.8 68.6 46.5 68.4z"/><path class="st0" d="M44.5 75.6c0.1 0 0.3-0.1 0.3-0.2 0 0 0-0.1 0-0.1 0-0.2-0.1-0.3-0.3-0.3 0 0-0.1 0-0.1 0 -0.1 0-0.2 0.2-0.2 0.4S44.3 75.6 44.5 75.6z"/><path class="st0" d="M44.5 70.7c-0.3 0-0.3 0.2-0.3 0.4s0.2 0.2 0.3 0.2c0.1 0 0.3-0.1 0.3-0.2 0 0 0 0 0-0.1C44.8 70.8 44.6 70.7 44.5 70.7z"/><path class="st0" d="M44.8 73.3c0.1-0.2 0-0.3-0.2-0.4 -0.1-0.1-0.3-0.1-0.4 0.1s-0.1 0.4 0.2 0.5C44.5 73.5 44.7 73.4 44.8 73.3z"/><path class="st0" d="M46.9 71.1c0.1-0.2 0-0.3-0.2-0.4 -0.1-0.1-0.3-0.1-0.4 0.1s-0.1 0.4 0.2 0.5C46.7 71.3 46.9 71.2 46.9 71.1z"/><path class="st0" d="M45.6 71.8c-0.1 0-0.3 0-0.3 0.3s0.1 0.3 0.4 0.3 0.2-0.2 0.2-0.3S45.8 71.7 45.6 71.8z"/><path class="st0" d="M45.6 73.9c-0.2 0-0.3 0-0.3 0.3 0 0.2 0.1 0.3 0.3 0.3 0 0 0.1 0 0.1 0 0.2 0 0.2-0.2 0.2-0.3S45.7 73.9 45.6 73.9z"/><path class="st0" d="M46.6 73.4c0.2 0 0.4-0.1 0.3-0.3s-0.2-0.2-0.4-0.3 -0.2 0.2-0.2 0.3S46.4 73.4 46.6 73.4z"/><path class="st0" d="M42.3 70.7c-0.2 0-0.2 0.2-0.2 0.3s0.1 0.3 0.3 0.3 0.3 0 0.3-0.3S42.5 70.7 42.3 70.7z"/><path class="st0" d="M41.2 73.9c-0.2 0-0.3 0.1-0.3 0.3 0 0.2 0.1 0.3 0.3 0.3 0 0 0.1 0 0.1 0 0.2 0 0.2-0.2 0.2-0.4S41.4 73.9 41.2 73.9z"/><path class="st0" d="M41.2 76.1c-0.1 0-0.2 0.1-0.2 0.2 0 0 0 0.1 0 0.1 0 0.2 0.2 0.3 0.4 0.3s0.2-0.2 0.2-0.4S41.4 76.1 41.2 76.1z"/><path class="st0" d="M41.3 70.2c0.2 0 0.2-0.2 0.2-0.3s-0.1-0.3-0.3-0.3 -0.4 0.1-0.3 0.3C41 70.1 41.1 70.2 41.3 70.2z"/><path class="st0" d="M41.2 71.8c-0.2 0-0.3 0-0.3 0.3 0 0.2 0.1 0.3 0.3 0.3 0 0 0.1 0 0.1 0 0.2 0 0.2-0.2 0.2-0.3S41.4 71.8 41.2 71.8z"/><path class="st0" d="M43.5 72.3c0.2 0 0.2-0.2 0.2-0.3s-0.1-0.3-0.3-0.3 -0.4 0.1-0.3 0.3C43.2 72.3 43.3 72.4 43.5 72.3z"/><path class="st0" d="M43.1 76.3c0 0.1 0 0.3 0.2 0.3 0 0 0 0 0 0 0.1 0.1 0.3 0 0.3-0.1 0 0 0 0 0-0.1 0-0.2 0-0.3-0.1-0.4S43.2 76 43.1 76.3z"/><path class="st0" d="M42.6 73.3c0.1-0.2 0-0.3-0.2-0.4 -0.1-0.1-0.3-0.1-0.4 0.1s-0.1 0.4 0.2 0.5C42.4 73.5 42.5 73.4 42.6 73.3z"/><path class="st0" d="M42.4 75.6c0.2 0 0.3-0.1 0.3-0.3 0-0.2-0.2-0.3-0.3-0.3C42 75 42 75.2 42 75.4S42.2 75.6 42.4 75.6z"/><path class="st0" d="M34.5 70c0 0.2 0.2 0.3 0.3 0.2 0.2 0 0.2-0.2 0.2-0.3s-0.1-0.3-0.3-0.3S34.4 69.7 34.5 70z"/><path class="st0" d="M30.5 72.3c0.2 0 0.2-0.2 0.2-0.3s-0.1-0.3-0.3-0.3 -0.3 0-0.3 0.3S30.3 72.4 30.5 72.3z"/><path class="st0" d="M30.6 70.2c0.2 0 0.2-0.2 0.2-0.4s-0.2-0.2-0.3-0.2c-0.1 0-0.2 0.1-0.3 0.2 0 0 0 0.1 0 0.1 0 0.2 0.1 0.3 0.3 0.3C30.5 70.2 30.5 70.2 30.6 70.2z"/><path class="st0" d="M30.4 73.9c-0.1 0-0.2 0.1-0.2 0.2 0 0 0 0.1 0 0.1 0 0.2 0.2 0.3 0.4 0.3s0.2-0.2 0.2-0.4S30.6 73.9 30.4 73.9z"/><path class="st0" d="M32.7 76.7c0.2 0 0.2-0.2 0.3-0.3s-0.1-0.3-0.3-0.3 -0.3 0-0.3 0.2S32.4 76.7 32.7 76.7z"/><path class="st0" d="M31.6 71.3c0.2 0 0.3-0.1 0.3-0.3 0-0.2-0.2-0.3-0.3-0.3 -0.3 0-0.3 0.2-0.3 0.4S31.4 71.3 31.6 71.3z"/><path class="st0" d="M31.6 75c-0.2 0-0.3 0-0.3 0.2s0 0.4 0.3 0.4 0.3 0 0.3-0.4C31.8 75.1 31.7 75 31.6 75z"/><path class="st0" d="M29.5 72.9c-0.1-0.1-0.3-0.1-0.4 0.1s-0.1 0.4 0.1 0.5c0.2 0.1 0.3 0 0.4-0.2C29.7 73.1 29.6 72.9 29.5 72.9z"/><path class="st0" d="M31.4 77.1c-0.2 0-0.2 0.2-0.2 0.3s0 0.3 0.3 0.3 0.4-0.1 0.3-0.3S31.6 77.2 31.4 77.1z"/><path class="st0" d="M31.4 73.4c0.2 0 0.4 0 0.4-0.3 0-0.2-0.1-0.3-0.2-0.3 0 0 0 0 0 0 -0.2 0-0.3 0-0.3 0.2S31.2 73.4 31.4 73.4z"/><path class="st0" d="M30.5 76.7c0.2 0 0.2-0.2 0.2-0.4s-0.1-0.2-0.3-0.2 -0.3 0-0.3 0.3c0 0.2 0.1 0.3 0.3 0.3C30.5 76.7 30.5 76.7 30.5 76.7z"/><path class="st0" d="M28.4 72.3c0.2 0 0.2-0.2 0.2-0.3s-0.1-0.3-0.3-0.3S28 71.8 28 72 28.1 72.4 28.4 72.3z"/><path class="st0" d="M27.2 72.8c-0.3-0.1-0.3 0.2-0.3 0.3s0.1 0.3 0.3 0.3 0.3-0.1 0.3-0.3C27.5 73 27.4 72.9 27.2 72.8z"/><path class="st0" d="M27.2 75c-0.2 0-0.2 0.1-0.3 0.3s0 0.3 0.2 0.3 0.4-0.1 0.4-0.3S27.3 75 27.2 75z"/><path class="st0" d="M27.2 70.7c-0.3 0-0.3 0.2-0.3 0.4s0.2 0.2 0.3 0.2c0.1 0 0.3-0.1 0.3-0.2 0 0 0 0 0-0.1C27.5 70.8 27.4 70.7 27.2 70.7z"/><path class="st0" d="M29.1 75.1c0 0.2-0.1 0.4 0.1 0.5 0.2 0.1 0.3 0 0.4-0.2 0.1-0.2 0-0.3-0.2-0.4C29.4 75 29.2 74.9 29.1 75.1z"/><path class="st0" d="M29.4 70.7c-0.3 0-0.3 0.2-0.3 0.4s0.2 0.2 0.3 0.2c0.1 0 0.3-0.1 0.3-0.2 0 0 0 0 0-0.1C29.6 70.8 29.5 70.7 29.4 70.7z"/><path class="st0" d="M28.3 73.9c-0.1 0-0.3 0-0.3 0.2 0 0.2 0.1 0.3 0.2 0.4 0 0 0.1 0 0.1 0 0.2 0 0.3-0.1 0.3-0.3S28.6 73.9 28.3 73.9z"/><path class="st0" d="M28 76.3c0 0.1 0 0.3 0.2 0.3 0 0 0 0 0 0 0.1 0.1 0.3 0 0.3-0.1 0 0 0 0 0-0.1 0-0.2 0-0.3-0.1-0.4S28 76 28 76.3z"/><path class="st0" d="M33.7 77.8c0.2 0 0.4-0.1 0.3-0.4s-0.2-0.2-0.4-0.2 -0.1 0.2-0.2 0.3S33.5 77.8 33.7 77.8z"/><path class="st0" d="M34.9 71.8c-0.2 0-0.4-0.1-0.4 0.2 0 0.1 0 0.3 0.2 0.3 0 0 0 0 0 0 0.1 0.1 0.3 0 0.3-0.1 0 0 0 0 0-0.1C35.1 72 35.1 71.8 34.9 71.8z"/><path class="st0" d="M33.6 71.3c0.2 0 0.4-0.1 0.3-0.3s-0.2-0.2-0.3-0.3 -0.2 0.1-0.3 0.3S33.4 71.3 33.6 71.3z"/><path class="st0" d="M33.6 69.1c0.2 0 0.4-0.1 0.3-0.3s-0.2-0.2-0.4-0.3 -0.2 0.2-0.2 0.3S33.4 69.1 33.6 69.1z"/><path class="st0" d="M33.6 75.6c0.2 0.1 0.3 0 0.4-0.2 0.1-0.2 0-0.3-0.2-0.4 0 0 0 0 0 0 -0.1-0.1-0.3-0.1-0.4 0.1S33.3 75.5 33.6 75.6z"/><path class="st0" d="M33.4 73.3c0 0.2 0.2 0.2 0.3 0.2 0.1 0 0.2-0.1 0.3-0.2 0 0 0-0.1 0-0.1 0-0.2-0.2-0.3-0.3-0.3S33.4 73.1 33.4 73.3z"/><path class="st0" d="M34.8 68c0.2 0 0.3-0.1 0.3-0.3s0-0.3-0.2-0.3 -0.3 0-0.3 0.2S34.6 68 34.8 68z"/><path class="st0" d="M32.6 69.6c-0.2 0-0.3 0-0.3 0.3s0.1 0.3 0.4 0.3 0.2-0.2 0.2-0.3S32.8 69.6 32.6 69.6z"/><path class="st0" d="M34.5 76.3c-0.1 0.2 0 0.3 0.2 0.4 0 0 0.1 0 0.1 0 0.2 0 0.3-0.1 0.3-0.3s0-0.3-0.2-0.3S34.5 76.1 34.5 76.3z"/><path class="st0" d="M45.6 70.2c0.3-0.1 0.2-0.4 0.2-0.6h-0.6C45.3 69.9 45.2 70.3 45.6 70.2z"/><path class="st0" d="M34.8 73.9c-0.2 0-0.3 0.1-0.3 0.3s0.1 0.3 0.4 0.3 0.2-0.2 0.2-0.4S34.9 73.9 34.8 73.9z"/><path class="st0" d="M32.6 74.5c0.2 0 0.3-0.1 0.3-0.3s0-0.3-0.2-0.3 -0.3 0-0.3 0.2C32.3 74.3 32.4 74.5 32.6 74.5 32.6 74.5 32.6 74.5 32.6 74.5z"/><path class="st0" d="M35.9 72.8c-0.2 0-0.3 0-0.3 0.2s0 0.4 0.3 0.4 0.3 0 0.3-0.4C36.1 72.9 36 72.9 35.9 72.8z"/><path class="st0" d="M38 69.1c0.1 0 0.3-0.1 0.3-0.2 0 0 0 0 0-0.1 0-0.2-0.1-0.3-0.3-0.3 -0.3 0-0.3 0.2-0.3 0.4S37.9 69.1 38 69.1z"/><path class="st0" d="M32.6 72.3c0.2 0 0.3-0.1 0.3-0.3s0-0.3-0.2-0.3 -0.3 0-0.3 0.2S32.4 72.3 32.6 72.3z"/><path class="st0" d="M38.2 66.9L38.2 66.9h-0.4C37.9 67 38.1 67 38.2 66.9z"/><path class="st0" d="M35.7 69.1c0.2 0.1 0.3 0 0.4-0.2 0.1-0.2 0-0.3-0.2-0.4 -0.1-0.1-0.3-0.1-0.4 0.1S35.5 69.1 35.7 69.1z"/><path class="st0" d="M35.7 71.3c0.2 0.1 0.3 0 0.4-0.2 0.1-0.2 0-0.3-0.2-0.4 -0.1-0.1-0.3-0.1-0.4 0.1S35.5 71.2 35.7 71.3z"/><path class="st0" d="M37.9 71.3c0.2 0.1 0.3 0 0.4-0.2 0.1-0.2 0-0.3-0.2-0.4 -0.1-0.1-0.3-0.1-0.4 0.1S37.6 71.2 37.9 71.3z"/><path class="st0" d="M47.7 65.3c-0.4-0.1-0.1-0.5-0.2-0.7 0-0.6 0.5-1-0.1-1.9 -1-1.6-2.4-3-4-4 -0.5-0.3-0.6-1-1.1-1 -1.4 0.1-2.6-0.6-4-0.2 -2.7 0.7-5.5-0.8-8.2 0.5 0 0-0.1 0-0.1 0 -0.5-0.3-1.1-0.9-0.8 0.4 0.1 0.3-0.9 0.1-1.1 0.4 -0.4 0.5-0.9 1-1.4 1.4h18.3v1H26.5v-0.9c-0.2 0.2-0.4 0.4-0.5 0.6 -0.4 0.5-1.2 0.8-1.2 1.4 0.1 1.1-0.3 2.3 0.2 3.4 0.2 0.4-0.6 0.8-0.1 1.1 1.2 0.8 1.6 2.3 3 3 0.3 0.2 0.3 0.4 0.8 0 0.7-0.5 1.7-1.2 2.3-1 0.9 0.3 0.9 0 0.8-0.6 0-0.1 0.2-0.2 0.3-0.2 0.9 0.1 1.1-0.7 1.5-1.2 -3.8-0.4-6.5-1.9-6.5-3.7h1c0 1.4 3.1 2.8 7.7 2.8s7.7-1.5 7.7-2.8h1c0 1.7-2.2 3.1-5.5 3.6 0.1 0.2 0.2 0.4 0.2 0.7 -0.4 0.1-0.5 0.3-0.2 0.5s0.5-0.3 0.7-0.3c1.1 1 2.5 1.4 3.5 2.4 0.2 0.2 0.4 0.2 0.5 0 0.3-0.6 0.8-0.3 1.2-0.5l1.4-1.5 1-2.3c0.2 0 0.5 0.2 0.6-0.1S48 65.3 47.7 65.3z"/><path class="st0" d="M57.3 51.2c-0.2 0-0.1 0.2-0.2 0.3s0.1 0.3 0.3 0.3 0.4-0.1 0.3-0.4S57.5 51.2 57.3 51.2z"/><path class="st0" d="M55.3 64.8c0.1 0 0.3-0.1 0.3-0.2 0 0 0-0.1 0-0.1 0-0.2-0.1-0.3-0.3-0.3 0 0-0.1 0-0.1 0 -0.1 0-0.2 0.2-0.2 0.4S55.2 64.8 55.3 64.8z"/><path class="st0" d="M55.2 55.5c-0.2 0-0.2 0.2-0.2 0.3s0.1 0.3 0.3 0.3 0.3 0 0.3-0.3S55.5 55.6 55.2 55.5z"/><path class="st0" d="M57.5 56.2c0.1 0 0.3-0.1 0.3-0.2 0 0 0 0 0-0.1 0-0.2-0.1-0.3-0.3-0.3 -0.3 0-0.3 0.2-0.3 0.4S57.3 56.2 57.5 56.2z"/><path class="st0" d="M57.4 54c0.2 0 0.3-0.1 0.3-0.3 0-0.2-0.1-0.3-0.3-0.3 -0.3-0.1-0.3 0.2-0.3 0.3S57.3 54 57.4 54z"/><path class="st0" d="M55 57.8c0 0.2-0.1 0.4 0.2 0.5 0.2 0.1 0.3 0 0.4-0.2 0.1-0.2 0-0.3-0.2-0.4C55.3 57.7 55.1 57.6 55 57.8z"/><path class="st0" d="M54.3 65.9c0.2 0 0.2-0.2 0.2-0.3s-0.1-0.3-0.3-0.3 -0.3 0-0.3 0.3S54 65.9 54.3 65.9z"/><path class="st0" d="M55.2 62.6c0.2 0 0.4-0.1 0.3-0.3s-0.2-0.2-0.3-0.3S55 62.2 55 62.3 55 62.6 55.2 62.6z"/><path class="st0" d="M54.3 63.7c0.2 0 0.2-0.2 0.2-0.4s-0.2-0.2-0.3-0.2 -0.3 0.1-0.3 0.3C53.9 63.6 54 63.7 54.3 63.7 54.2 63.7 54.3 63.7 54.3 63.7z"/><path class="st0" d="M55 60.3c0 0.2 0.2 0.2 0.3 0.2s0.3-0.1 0.2-0.3 -0.2-0.3-0.3-0.3S55 60.1 55 60.3z"/><path class="st0" d="M58.7 52.3c-0.2 0-0.4-0.1-0.4 0.2 0 0.1 0 0.3 0.2 0.3 0 0 0 0 0 0 0.2 0 0.3 0 0.4-0.2S58.8 52.4 58.7 52.3z"/><path class="st0" d="M58.6 55.1c0.2 0 0.2-0.2 0.2-0.3s-0.1-0.3-0.3-0.3 -0.3 0-0.3 0.3S58.3 55.1 58.6 55.1z"/><path class="st0" d="M60.8 48.6c0.2 0 0.2-0.2 0.2-0.3S60.9 48 60.7 48s-0.3 0-0.3 0.3S60.5 48.6 60.8 48.6z"/><path class="st0" d="M60.8 46.4c0.2 0 0.2-0.2 0.2-0.3s-0.1-0.3-0.3-0.3 -0.3 0-0.3 0.3S60.5 46.4 60.8 46.4z"/><path class="st0" d="M57.4 57.7c-0.2 0-0.2 0.2-0.2 0.3s0 0.3 0.3 0.3 0.4-0.1 0.3-0.3S57.5 57.7 57.4 57.7z"/><path class="st0" d="M57.4 60.5c0.2 0 0.4-0.1 0.3-0.4s-0.2-0.2-0.4-0.2 -0.1 0.2-0.2 0.3S57.3 60.5 57.4 60.5z"/><path class="st0" d="M58.5 57.2c0.2 0 0.3 0 0.4-0.2s0-0.3-0.1-0.3 -0.4-0.1-0.4 0.2C58.2 57 58.3 57.2 58.5 57.2 58.4 57.2 58.4 57.2 58.5 57.2z"/><path class="st0" d="M58.5 50.8c0.2 0 0.3-0.1 0.3-0.3s0-0.3-0.2-0.3 -0.3 0-0.3 0.2C58.2 50.5 58.3 50.7 58.5 50.8 58.5 50.7 58.5 50.8 58.5 50.8z"/><path class="st0" d="M61 50.5c0-0.1 0-0.3-0.1-0.3s-0.4-0.1-0.4 0.2c0 0.1 0 0.3 0.2 0.3 0 0 0 0 0 0C60.8 50.8 60.9 50.7 61 50.5z"/><path class="st0" d="M60.8 43.7c-0.2 0-0.4-0.1-0.4 0.2 0 0.1 0 0.3 0.2 0.3 0 0 0 0 0 0 0.2 0 0.3 0 0.4-0.2S61 43.7 60.8 43.7z"/><path class="st0" d="M46.3 75.3L46.3 75.3l0.5-0.3c-0.1-0.1-0.2-0.1-0.3-0.1C46.4 75 46.4 75.2 46.3 75.3z"/><path class="st0" d="M59.5 53.4c-0.1 0-0.2 0.2-0.2 0.4s0.2 0.2 0.3 0.2c0.1 0 0.3-0.1 0.3-0.2 0 0 0-0.1 0-0.1 0-0.2-0.1-0.3-0.3-0.3C59.6 53.4 59.5 53.4 59.5 53.4z"/><path class="st0" d="M59.6 51.2c-0.3 0-0.3 0.2-0.3 0.4s0.2 0.2 0.3 0.2 0.3-0.1 0.3-0.3C59.9 51.4 59.7 51.2 59.6 51.2z"/><path class="st0" d="M10.2 49.4c0-0.3-0.2-0.3-0.4-0.3l0.3 0.6C10.2 49.6 10.2 49.5 10.2 49.4z"/><path class="st0" d="M47.8 73.9c-0.2 0-0.3 0-0.3 0.2 0 0.2 0.1 0.3 0.2 0.4 0 0 0 0 0 0l0.3-0.2 0 0C48 74.1 48 73.9 47.8 73.9z"/><path class="st0" d="M63 39.8L63 39.8c0.1-0.1 0.1-0.3 0-0.4 0 0 0 0 0 0 0 0-0.1-0.1-0.2-0.1l-0.5 0.2C62.6 39.8 62.7 40.1 63 39.8z"/><path class="st0" d="M63 42L63 42c0.1-0.1 0.1-0.3 0-0.4 0 0 0 0 0 0 0 0-0.1-0.1-0.2-0.1l-0.5 0.2C62.6 41.9 62.7 42.3 63 42z"/><path class="st0" d="M56.4 54.5c-0.1 0-0.3 0-0.3 0.2s0.1 0.4 0.3 0.4 0.3-0.1 0.3-0.3S56.6 54.5 56.4 54.5z"/><path class="st0" d="M54.5 59.1c0-0.2 0-0.3-0.2-0.3s-0.3 0-0.3 0.2 0.1 0.4 0.3 0.4S54.5 59.3 54.5 59.1z"/><path class="st0" d="M56.7 57c0-0.2 0-0.3-0.2-0.3s-0.3 0-0.4 0.2c-0.1 0.2 0 0.3 0.2 0.4 0 0 0.1 0 0.1 0C56.5 57.3 56.6 57.1 56.7 57z"/><path class="st0" d="M54.3 61.5c0.2 0 0.2-0.2 0.2-0.3S54.4 61 54.2 61s-0.3 0-0.3 0.3S54 61.6 54.3 61.5z"/><path class="st0" d="M56.4 59.4c0.2 0 0.3-0.1 0.3-0.3s0-0.3-0.2-0.3 -0.3 0-0.4 0.2C56 59.1 56.1 59.3 56.4 59.4 56.3 59.4 56.3 59.4 56.4 59.4z"/><path class="st0" d="M56.5 63.1c-0.2 0-0.3 0-0.4 0.2 -0.1 0.2 0 0.3 0.2 0.4 0 0 0.1 0 0.1 0 0.2 0 0.3-0.1 0.3-0.3S56.7 63.1 56.5 63.1z"/><path class="st0" d="M59.5 46.9c-0.3 0-0.2 0.2-0.2 0.3s0.1 0.3 0.3 0.3 0.3 0 0.3-0.3S59.8 46.9 59.5 46.9z"/><path class="st0" d="M59.7 49.7c0.1 0 0.2-0.1 0.2-0.2 0 0 0-0.1 0-0.1 0-0.2-0.2-0.3-0.3-0.3s-0.3 0.3-0.2 0.4S59.5 49.7 59.7 49.7z"/><path class="st0" d="M56.5 61c-0.2 0-0.4 0-0.4 0.3 0 0.2 0.1 0.3 0.3 0.3 0.1 0 0.3-0.1 0.3-0.2 0 0 0 0 0 0C56.7 61.1 56.7 61 56.5 61z"/><path class="st0" d="M44.1 33.7c0-0.3 0-0.5 0.1-0.8 -0.9 0.4-1.7 1-2.4 1.8 1 0.9 2.3 1.4 3.6 1.4C44.6 35.6 44.1 34.7 44.1 33.7z"/><path class="st0" d="M52 59.4c0.2 0 0.3-0.1 0.3-0.3s0-0.3-0.2-0.3 -0.3 0-0.4 0.2C51.7 59.1 51.8 59.3 52 59.4 51.9 59.4 52 59.4 52 59.4z"/><path class="st0" d="M52.2 61.5c0.1 0 0.2-0.2 0.2-0.4S52.2 60.9 52 61s-0.3 0.1-0.2 0.3S52 61.6 52.2 61.5z"/><path class="st0" d="M51 59.9c-0.2 0-0.3 0-0.3 0.2s0 0.3 0.2 0.3 0.4 0 0.4-0.3C51.3 60 51.2 59.9 51 59.9 51 59.9 51 59.9 51 59.9z"/><path class="st0" d="M50.9 62c-0.2 0-0.2 0.1-0.3 0.3s0 0.3 0.2 0.3 0.4-0.1 0.3-0.3S51.1 62.1 50.9 62z"/><path class="st0" d="M52.1 63.1c-0.2 0-0.4 0.1-0.3 0.3 0 0.2 0.2 0.3 0.3 0.2 0.2 0 0.2-0.2 0.2-0.3S52.3 63.1 52.1 63.1z"/><path class="st0" d="M51.8 70c0 0.2 0.2 0.3 0.3 0.2 0.2 0 0.2-0.2 0.2-0.3s-0.1-0.3-0.3-0.3S51.7 69.7 51.8 70z"/><path class="st0" d="M61.7 45.3c0.2 0.1 0.3 0 0.4-0.2 0.1-0.2 0-0.3-0.2-0.4 -0.1-0.1-0.3-0.1-0.4 0.1S61.4 45.3 61.7 45.3z"/><path class="st0" d="M52 65.9c0.1 0 0.3-0.1 0.3-0.2 0 0 0 0 0 0 0-0.2 0-0.3-0.2-0.3s-0.4 0-0.4 0.3C51.7 65.7 51.8 65.9 52 65.9z"/><path class="st0" d="M50.9 67c0.2 0 0.4-0.1 0.3-0.3s-0.2-0.2-0.3-0.3 -0.2 0.1-0.3 0.3S50.7 67 50.9 67z"/><path class="st0" d="M47.7 71.8c-0.1 0-0.2 0.1-0.2 0.2 0 0 0 0.1 0 0.1 0 0.2 0.2 0.3 0.4 0.3S48 72.1 48 72 47.8 71.7 47.7 71.8z"/><path class="st0" d="M47.8 69.6c-0.2 0-0.3 0-0.3 0.2 0 0.2 0.1 0.3 0.2 0.4 0 0 0.1 0 0.1 0 0.2 0 0.3-0.1 0.3-0.3S48 69.6 47.8 69.6z"/><path class="st0" d="M53.2 60.5c0.2 0 0.3-0.1 0.3-0.3 0-0.2-0.2-0.3-0.3-0.3 -0.3 0-0.3 0.2-0.3 0.4S53 60.5 53.2 60.5z"/><path class="st0" d="M47.8 68c0.2 0 0.3-0.1 0.3-0.3s0-0.3-0.2-0.3 -0.3 0-0.3 0.2S47.5 68 47.8 68z"/><path class="st0" d="M48.8 72.8c-0.3 0-0.3 0.2-0.3 0.4s0.2 0.2 0.3 0.2 0.3-0.1 0.3-0.3C49.1 73 48.9 72.8 48.8 72.8z"/><path class="st0" d="M48.8 70.7c-0.2-0.1-0.2 0.1-0.2 0.2s0 0.3 0.2 0.3 0.4 0 0.4-0.3S49 70.7 48.8 70.7z"/><path class="st0" d="M51 68.5c-0.2 0-0.3 0-0.3 0.2s0 0.4 0.3 0.4 0.3 0 0.3-0.3C51.3 68.7 51.2 68.6 51 68.5z"/><path class="st0" d="M50.9 70.7c-0.3 0-0.3 0.3-0.2 0.4s0.2 0.2 0.3 0.2 0.3-0.1 0.2-0.3S51.1 70.7 50.9 70.7z"/><path class="st0" d="M51 64.2c-0.3 0-0.3 0.2-0.3 0.4s0.2 0.2 0.3 0.2c0.1 0 0.3-0.1 0.3-0.2 0 0 0 0 0-0.1C51.3 64.3 51.2 64.2 51 64.2z"/><path class="st0" d="M52.1 67.4c-0.1 0-0.3 0-0.3 0.2 0 0.2 0.1 0.3 0.2 0.4 0 0 0.1 0 0.1 0 0.2 0 0.3-0.1 0.3-0.3S52.3 67.4 52.1 67.4z"/><path class="st0" d="M53.8 56.7L53.8 56.7 53.8 56.7 53.8 56.7 53.8 56.7z"/><path class="st0" d="M14.7 49.3L14.7 49.3 14.7 49.3c-0.1 0-0.2-0.1-0.3-0.2C14.3 49 14.1 49 14 49.3c-0.1 0.1-0.1 0.2 0 0.3 0.3 0.2 0.4 0 0.6-0.2C14.6 49.4 14.6 49.4 14.7 49.3L14.7 49.3 14.7 49.3 14.7 49.3z"/><path class="st0" d="M16.9 53.6L16.9 53.6 16.9 53.6c-0.1-0.1-0.2-0.1-0.3-0.2 -0.1-0.1-0.3-0.1-0.4 0.1 0 0 0 0 0 0 -0.1 0.1 0 0.3 0 0.4 0.3 0.2 0.4 0 0.5-0.2C16.8 53.7 16.9 53.7 16.9 53.6L16.9 53.6 16.9 53.6z"/><path class="st0" d="M21.6 32.7c-1.2 0.3-2.4 0.8-3.5 1.3 1.3 0.7 2.7 1.3 4.1 1.7 -0.6-0.5-0.9-1.2-0.9-2C21.4 33.4 21.4 33.1 21.6 32.7z"/><path class="st0" d="M61.8 47.5c0.1 0 0.2-0.1 0.2-0.3 0 0 0 0 0-0.1 0-0.2-0.2-0.3-0.3-0.3s-0.3 0.3-0.2 0.4S61.7 47.5 61.8 47.5z"/><path class="st0" d="M61.7 43.2c0.2 0.1 0.3 0 0.4-0.2 0.1-0.2 0-0.3-0.2-0.4 -0.1-0.1-0.3-0.1-0.4 0.1S61.4 43.1 61.7 43.2z"/><path class="st0" d="M26.9 32.9c0.1 0.3 0.1 0.5 0.1 0.8 0 1-0.5 1.9-1.4 2.4 1.3-0.1 2.6-0.6 3.6-1.4C28.6 33.9 27.8 33.3 26.9 32.9z"/><path class="st0" d="M61.8 40.4c-0.3-0.1-0.3 0.2-0.3 0.3s0.1 0.3 0.3 0.3 0.3-0.1 0.3-0.3C62.1 40.6 61.9 40.5 61.8 40.4z"/><path class="st0" d="M54.4 57.2c0.1-0.1 0.1-0.2 0.1-0.3 -0.1-0.4-0.3-0.3-0.5-0.2h-0.2c0 0 0 0.1 0.1 0.1C54 57 54 57.3 54.4 57.2z"/><path class="st0" d="M53.2 64.2c-0.3-0.1-0.3 0.2-0.3 0.3s0.1 0.3 0.3 0.3 0.3-0.1 0.3-0.3C53.4 64.4 53.3 64.2 53.2 64.2z"/><circle class="st0" cx="24.2" cy="33.7" r="0.3"/><path class="st0" d="M52 12.9c-2.5-0.6-7.8 2.4-10.6 4.9 -1.5 1.4-3.4 2.4-5.4 2.7h-0.5c-2-0.4-3.9-1.3-5.4-2.7 -2.8-2.5-8.1-5.5-10.6-4.9s-7.3 8.9-8.5 12.6c-0.6 1.8-0.6 5.1-0.5 8h0.2c0 1.6 0.2 3.2 0.2 4.8 0 1.2 0.6 2.1 0.7 3.2s0.9 2.1 1.1 3.2c0.3 1.7 1.5 2.8 2 4.4l0 0c0.5 1.6 1.8 2.8 2.2 4.4l0 0c0.4 1.1 1 2.1 1.8 3 1.7 2.2 2.3 2.1 4 0.2 0.7-0.8 1.6-1.6 2.5-2.1 0.1 0 0.3 0 0.4 0.1 0.4 0.2 0.8 0.5 0.8-0.3 0-0.1 0-0.2 0-0.3 1.3-0.4 2.6-0.5 3.9-0.5h1.2l-0.1-0.1c-2 0.5-3.6-1.2-3.6-3.3 -0.1-1.7 1.2-3.2 2.9-3.3v1c-1.3 0.3-2.1 1.5-1.9 2.8 0.2 0.9 0.9 1.7 1.9 1.9 0.2 0 0.4 0 0.6-0.1l0.4-0.2 0.2 0.3c0.3 0.5 0.8 1 1.4 1.3l0.2 0.1c0.7 0.3 1.4 0.5 2.2 0.5 1.5 0.1 2.9-0.6 3.8-1.8l0.2-0.3 0.4 0.1c0.1 0 0.3 0.1 0.4 0.1 1.3-0.3 2.1-1.5 1.9-2.8 -0.2-0.9-0.9-1.7-1.9-1.9v-1c1.7 0.1 3 1.6 2.9 3.3 0 2-1.5 3.6-3.3 3.3h0.5c1.6 0.1 3.3-0.3 4.8 0.7 -0.1 0-0.2 0-0.3 0.1 0 0.1 0 0.2 0 0.3 0 0.1 0.2 0.3 0.3 0.2 0 0 0 0 0 0 0.2 0 0.2-0.2 0.2-0.3 0-0.1 0-0.2 0-0.3 1.5 0.1 2.5 1.1 3.4 2.1 0.5 0.5 1 1 1.5 1.5s1.3 0 1.9-0.3c0.1 0 0.1 0.1 0.2 0.2s0.1 0.5 0.4 0.4c0.1 0 0.2-0.1 0.2-0.2 0-0.3-0.2-0.3-0.4-0.4l-0.2-0.1c0.3-0.3 0.5-0.8 0.9-0.9 0.5-1 1.2-2 1.8-3s0.8-2.2 1.4-3.2c0.7-1.3 1.4-2.7 1.9-4.2 0.2-0.4 0.2-1 0.8-1 0.3 0 0.3-0.4 0.1-0.5s-0.1-0.4 0-0.6c0.7-1.5 1.1-3.1 1.3-4.7l-0.6 0.3c0 0 0.3-2.4 0.4-5.3v-0.5l0 0c0-0.3 0-0.6 0-0.9h-0.1v-0.3h0.1c0.2-2.4 0-4.8-0.5-7.2C59.3 21.9 54.5 13.5 52 12.9zM30 35.1c-1.3 1.2-3.1 1.9-4.9 1.8 -2.8-0.2-5.5-1-7.9-2.5 -0.1-0.1-0.2-0.2-0.2-0.3 0-0.1 0.1-0.2 0.2-0.3 1.6-0.9 3.3-1.6 5.1-1.9 0.2 0 0.3 0 0.4 0.2 0.1 0.1 0.1 0.3 0 0.4 -0.3 0.4-0.5 0.8-0.5 1.3 0.1 1.1 1.1 2 2.2 1.9 1-0.1 1.8-0.9 1.9-1.9 0-0.4-0.1-0.9-0.4-1.2 -0.1-0.1-0.1-0.3 0-0.4 0.1-0.1 0.3-0.2 0.4-0.1 1.6 0.4 2.9 1.3 3.8 2.7C30.2 34.8 30.1 34.9 30 35.1zM23.1 33.7c0-0.6 0.5-1.1 1.1-1.1 0.6 0 1.1 0.5 1.1 1.1 0 0.6-0.5 1.1-1.1 1.1C23.6 34.8 23.1 34.3 23.1 33.7 23.1 33.7 23.1 33.7 23.1 33.7zM32.3 30.9H15.4v-2h16.9V30.9zM34.3 48.2h-1V29.9h1V48.2zM54 34.4c-2.4 1.5-5.2 2.4-8 2.5 -1.8 0.1-3.6-0.6-4.9-1.9 -0.1-0.1-0.2-0.3-0.1-0.5 0.9-1.3 2.3-2.3 3.8-2.7 0.2 0 0.3 0 0.4 0.1 0.1 0.1 0.1 0.3 0 0.4 -0.7 0.9-0.5 2.2 0.4 2.9 0.9 0.7 2.2 0.5 2.9-0.4 0.6-0.8 0.6-1.8-0.1-2.6 -0.1-0.1-0.1-0.3 0-0.4 0.1-0.1 0.2-0.2 0.4-0.2 1.8 0.4 3.5 1 5.1 1.9 0.2 0.1 0.2 0.3 0.1 0.5C54.1 34.3 54 34.3 54 34.4L54 34.4zM45.9 33.7c0-0.6 0.5-1.1 1.1-1.1 0.6 0 1.1 0.5 1.1 1.1 0 0.6-0.5 1.1-1.1 1.1C46.4 34.8 45.9 34.3 45.9 33.7 45.9 33.7 45.9 33.7 45.9 33.7zM56.3 30.9h-17v-2h17V30.9z"/><path class="st0" d="M53.2 69.1c0.2 0 0.3-0.1 0.3-0.3 0-0.2-0.2-0.3-0.3-0.3 -0.3 0-0.3 0.2-0.3 0.4S53 69.1 53.2 69.1z"/><path class="st0" d="M52.8 62.4c0 0.2 0.2 0.2 0.3 0.2s0.3-0.1 0.3-0.3c0-0.2-0.1-0.3-0.3-0.3C52.8 62 52.8 62.3 52.8 62.4z"/><path class="st0" d="M53.4 66.8c0.1-0.2 0-0.3-0.2-0.4 -0.1-0.1-0.3-0.1-0.4 0.1s-0.1 0.4 0.2 0.5C53.2 67 53.3 66.9 53.4 66.8z"/><path class="st0" d="M26.2 71.8c-0.1 0-0.3 0-0.4 0.2 0 0.2 0.1 0.3 0.2 0.4 0 0 0.1 0 0.1 0 0.2 0 0.3-0.1 0.3-0.3S26.4 71.7 26.2 71.8z"/><path class="st0" d="M49.7 33.7c0 0.8-0.3 1.5-0.9 2 1.4-0.4 2.8-0.9 4.2-1.6 -1.1-0.6-2.3-1-3.5-1.3C49.7 33 49.7 33.4 49.7 33.7z"/><circle class="st0" cx="46.9" cy="33.7" r="0.3"/><path class="st0" d="M67 27.6c-0.5 0-1 0.1-1.4 0.4l-0.9 0.5 -0.1-0.4 -0.9 7.3c0 0 0 0 0.1 0v0.3l0 0V36c0 0-0.1 0-0.1 0l-0.2 1.2c0-0.2 0.1-0.3 0.3-0.3v0.6c-0.1 0-0.3-0.1-0.3-0.3 0 0 0 0 0 0l-0.1 0.6v7.9c-0.1 0.3-1.7 0.1-0.4 1 0 0 0 0.1 0.1 0.1l0.1-0.3 0.7 0.3c0.1 0.1 0.3 0.1 0.4 0.1 2 0.3 4.7-3.2 5.6-9S69 27.9 67 27.6zM63.8 38.2v0.3h-0.3C63.5 38.4 63.6 38.2 63.8 38.2 63.7 38.2 63.7 38.2 63.8 38.2z"/><path class="st0" d="M49.9 72.3c0.2 0 0.2-0.2 0.3-0.3s-0.1-0.3-0.3-0.3 -0.3 0-0.3 0.2S49.7 72.3 49.9 72.3z"/><path class="st0" d="M16.4 55.6c-0.3 0-0.3 0.2-0.3 0.4s0.2 0.2 0.3 0.2c0.1 0 0.3-0.1 0.3-0.2 0 0 0 0 0-0.1C16.7 55.7 16.6 55.6 16.4 55.6z"/><path class="st0" d="M16.4 64.8c0.2 0 0.4-0.1 0.3-0.4s-0.2-0.2-0.4-0.2 -0.1 0.2-0.2 0.3S16.2 64.8 16.4 64.8z"/><path class="st0" d="M15.4 58.8c-0.2 0-0.4 0-0.4 0.3 0 0.2 0.1 0.3 0.3 0.3 0.1 0 0.3-0.1 0.3-0.2 0 0 0 0 0 0C15.6 59 15.6 58.8 15.4 58.8z"/><path class="st0" d="M16.1 60.3c0 0.2 0.2 0.2 0.3 0.2s0.3-0.1 0.3-0.3c0-0.2-0.2-0.3-0.3-0.3C16.1 59.8 16.1 60.1 16.1 60.3z"/><path class="st0" d="M49.9 65.3c-0.1 0-0.3 0-0.3 0.2s0.1 0.4 0.3 0.4 0.2-0.2 0.3-0.3S50.1 65.3 49.9 65.3z"/><path class="st0" d="M16.5 58.3c0.2 0 0.3-0.1 0.3-0.3 0-0.2-0.2-0.3-0.3-0.3 -0.3 0-0.3 0.2-0.3 0.4S16.3 58.3 16.5 58.3z"/><path class="st0" d="M49.9 58.8c-0.1 0-0.3 0-0.3 0.2s0.1 0.4 0.3 0.4 0.2-0.2 0.3-0.3S50.1 58.8 49.9 58.8z"/><path class="st0" d="M10.7 44c0 0.2 0.2 0.3 0.3 0.2 0.2 0 0.2-0.2 0.2-0.3s-0.1-0.3-0.3-0.3S10.6 43.8 10.7 44z"/><path class="st0" d="M16.1 62.4c0 0.2 0.2 0.2 0.3 0.2s0.3-0.1 0.3-0.3c0-0.2-0.2-0.3-0.3-0.3C16.1 62 16.1 62.3 16.1 62.4z"/><path class="st0" d="M14.2 55.5c-0.1-0.1-0.2 0.1-0.2 0.2s0 0.3 0.2 0.3 0.4 0 0.4-0.3S14.4 55.6 14.2 55.5z"/><path class="st0" d="M13.3 54.5c-0.2 0-0.4-0.1-0.4 0.2 0 0.1 0 0.3 0.2 0.3 0 0 0 0 0 0 0.1 0.1 0.3 0 0.3-0.1 0 0 0 0 0-0.1C13.5 54.7 13.5 54.5 13.3 54.5z"/><path class="st0" d="M14.2 59.9c-0.2 0-0.2 0.2-0.2 0.3s0.1 0.3 0.3 0.3 0.4-0.1 0.3-0.3S14.4 59.9 14.2 59.9z"/><path class="st0" d="M13.3 56.6c-0.1 0-0.3 0-0.4 0.2 -0.1 0.2 0 0.3 0.2 0.4 0 0 0.1 0 0.1 0 0.2 0 0.3-0.1 0.3-0.3S13.5 56.6 13.3 56.6z"/><path class="st0" d="M15.4 63.7c0.2 0 0.2-0.2 0.2-0.3s-0.1-0.2-0.3-0.2 -0.3 0-0.3 0.3S15.2 63.7 15.4 63.7z"/><path class="st0" d="M25.8 74.1c0 0.2 0.1 0.4 0.3 0.4s0.3-0.1 0.3-0.3 0-0.3-0.2-0.3S25.9 73.9 25.8 74.1z"/><path class="st0" d="M15.4 56.6c-0.1 0-0.3 0-0.3 0.2s0.1 0.4 0.3 0.4 0.2-0.2 0.3-0.3S15.6 56.6 15.4 56.6z"/><path class="st0" d="M14.1 57.7C14 57.7 14 58 14 58.1s0.1 0.2 0.3 0.2c0.1 0 0.3-0.1 0.3-0.2 0 0 0-0.1 0-0.1 0-0.2-0.1-0.3-0.3-0.3C14.2 57.7 14.2 57.7 14.1 57.7z"/><path class="st0" d="M15.4 52.9c0.2 0 0.3-0.1 0.3-0.3s0-0.3-0.2-0.3 -0.3 0-0.3 0.2C15 52.7 15.1 52.9 15.4 52.9 15.3 52.9 15.3 52.9 15.4 52.9z"/><path class="st0" d="M15.4 61c-0.1 0-0.3 0-0.4 0.2 -0.1 0.2 0 0.3 0.2 0.4 0 0 0.1 0 0.1 0 0.2 0 0.3-0.1 0.3-0.3S15.6 61 15.4 61z"/><path class="st0" d="M46.6 60.5c0.2 0 0.3-0.1 0.3-0.3 0-0.2-0.1-0.3-0.3-0.3 -0.3-0.1-0.3 0.2-0.3 0.3S46.5 60.5 46.6 60.5z"/><path class="st0" d="M46.9 55.8c0-0.2-0.2-0.2-0.3-0.3s-0.2 0.2-0.2 0.3 0 0.3 0.3 0.3S47 56.1 46.9 55.8z"/><path class="st0" d="M46.7 58.3c0.1 0 0.3-0.1 0.3-0.2 0 0 0-0.1 0-0.1 0-0.2-0.1-0.3-0.3-0.3 0 0-0.1 0-0.1 0 -0.1 0-0.2 0.2-0.2 0.4S46.5 58.3 46.7 58.3z"/><path class="st0" d="M47.9 61c-0.2 0-0.4-0.1-0.4 0.2 0 0.1 0 0.3 0.2 0.3 0 0 0 0 0 0 0.2 0 0.3 0 0.4-0.2S48 61 47.9 61z"/><path class="st0" d="M47.4 59c0 0.2 0.1 0.4 0.3 0.4s0.3-0.1 0.3-0.3 0-0.3-0.2-0.3S47.5 58.8 47.4 59z"/><path class="st0" d="M27.2 55.5c-0.3 0-0.3 0.2-0.3 0.4s0.2 0.2 0.3 0.2 0.3-0.1 0.3-0.3C27.5 55.7 27.3 55.6 27.2 55.5z"/><path class="st0" d="M28 56.8c0 0.2 0.1 0.4 0.3 0.4s0.3-0.1 0.3-0.3 0-0.3-0.2-0.3S28 56.6 28 56.8z"/><path class="st0" d="M48.5 64.6c0 0.2 0.2 0.2 0.3 0.2s0.3-0.1 0.3-0.3c0-0.2-0.1-0.3-0.3-0.3C48.5 64.2 48.5 64.4 48.5 64.6z"/><path class="st0" d="M49.6 69.8c0 0.1 0 0.3 0.2 0.3 0 0 0 0 0 0 0.1 0.1 0.3 0 0.3-0.1 0 0 0 0 0-0.1 0-0.2 0-0.3-0.1-0.4S49.6 69.5 49.6 69.8z"/><path class="st0" d="M47.8 56.6c-0.2 0-0.3 0-0.3 0.2 0 0.2 0.1 0.3 0.2 0.4 0 0 0.1 0 0.1 0 0.2 0 0.3-0.1 0.3-0.3S48 56.6 47.8 56.6z"/><path class="st0" d="M48.8 62.6c0.1 0 0.3-0.1 0.3-0.2 0 0 0-0.1 0-0.1 0-0.2-0.1-0.3-0.3-0.3 0 0-0.1 0-0.1 0 -0.1 0-0.2 0.2-0.2 0.4S48.7 62.6 48.8 62.6z"/><path class="st0" d="M49.9 61c-0.2 0-0.4 0.1-0.3 0.3 0 0.2 0.2 0.3 0.3 0.2 0.2 0 0.2-0.2 0.2-0.3S50.1 60.9 49.9 61z"/><path class="st0" d="M48.8 57.7c-0.3 0-0.2 0.2-0.2 0.3s0.1 0.3 0.3 0.3 0.3 0 0.3-0.3S49 57.7 48.8 57.7z"/><path class="st0" d="M50 68c0.2 0 0.2-0.2 0.2-0.3s-0.1-0.2-0.3-0.2 -0.3 0-0.3 0.3S49.7 68.1 50 68z"/><path class="st0" d="M49.9 63.1c-0.2 0-0.3 0-0.3 0.3 0 0.2 0.1 0.3 0.3 0.3 0 0 0.1 0 0.1 0 0.2 0 0.2-0.2 0.2-0.3S50 63.1 49.9 63.1z"/><path class="st0" d="M48.8 59.9c-0.3 0-0.2 0.2-0.2 0.3s0.1 0.3 0.3 0.3 0.3 0 0.3-0.3S49 59.9 48.8 59.9z"/><path class="st0" d="M48.8 69.1c0.1 0 0.3-0.1 0.3-0.2 0 0 0-0.1 0-0.1 0-0.2-0.1-0.3-0.3-0.3 0 0-0.1 0-0.1 0 -0.1 0-0.2 0.2-0.2 0.4S48.7 69.1 48.8 69.1z"/><path class="st0" d="M48.8 66.4c-0.2 0-0.3 0-0.3 0.2s0 0.4 0.3 0.4 0.3 0 0.3-0.3C49.1 66.5 49 66.4 48.8 66.4z"/><path class="st0" d="M27.2 57.7c-0.3 0-0.3 0.2-0.3 0.4s0.2 0.2 0.3 0.2 0.3-0.1 0.3-0.3C27.5 57.8 27.3 57.7 27.2 57.7z"/><path class="st0" d="M34.8 78.2c-0.1 0-0.2 0-0.3 0.1H35C35 78.2 34.9 78.2 34.8 78.2z"/><path class="st0" d="M37 78.2c-0.1 0-0.3 0-0.3 0.1h0.5C37.2 78.3 37.1 78.2 37 78.2z"/><path class="st0" d="M42 77.4l0.4-0.1c-0.1 0-0.1-0.1-0.2-0.1C42.1 77.1 42.1 77.3 42 77.4z"/><path class="st0" d="M29.4 77.2c-0.1 0-0.1 0-0.2 0l0.4 0.1C29.6 77.2 29.5 77.2 29.4 77.2z"/><path class="st0" d="M14.3 62h-0.1l0.2 0.5c0 0 0.1-0.1 0.1-0.1C14.6 62.2 14.5 62.1 14.3 62z"/><path class="st0" d="M54.3 67.4c-0.2 0-0.3 0-0.4 0.2 -0.1 0.2 0 0.3 0.2 0.4 0 0 0 0 0.1 0 0.1-0.1 0.2-0.3 0.3-0.4C54.4 67.5 54.4 67.4 54.3 67.4z"/><path class="st0" d="M24.9 75c0.1 0.1 0.3 0.2 0.4 0.3C25.3 75.1 25.2 75 24.9 75 25 75 25 75 24.9 75z"/><path class="st0" d="M17.8 67.8c0-0.1 0-0.2 0-0.3 -0.2-0.1-0.3-0.1-0.4 0l0.3 0.5L17.8 67.8z"/><path class="st0" d="M13.5 59.1c0-0.2 0-0.3-0.2-0.3 -0.1 0-0.2 0-0.3 0l0.2 0.5C13.3 59.4 13.4 59.3 13.5 59.1 13.5 59.1 13.5 59.1 13.5 59.1z"/><path class="st0" d="M22.8 73.4c0.2 0.1 0.3 0 0.4-0.2 0.1-0.2 0-0.3-0.2-0.4 -0.1-0.1-0.3-0.1-0.4 0.1 0 0.1 0 0.2 0 0.3L22.8 73.4 22.8 73.4z"/><path class="st0" d="M8.9 45.8v-7.2l-0.7-0.3L7 28.7l-0.8-0.6c-0.5-0.4-1-0.5-1.6-0.5 -2 0.3-3.6 4.5-2.8 10.2s3.4 9 5.3 9h0.2c0.2 0 0.4-0.1 0.6-0.2l0.7-0.4L8.9 47c0.1 0.4 0.3 0.8 0.5 1.1C9.4 47.3 9.2 46.6 8.9 45.8z"/><path class="st0" d="M61.8 49.1c-0.3 0-0.3 0.2-0.3 0.4s0.1 0.2 0.3 0.2l0.2-0.5C61.9 49.1 61.8 49.1 61.8 49.1z"/><path class="st0" d="M55 66.7L55 66.7l0.3-0.4h-0.1C55.1 66.4 55 66.6 55 66.7z"/><path class="st0" d="M60.4 52.6c0 0 0 0.1 0 0.1l0.1-0.4C60.4 52.4 60.4 52.5 60.4 52.6z"/><path class="st0" d="M57.4 62c-0.3 0-0.3 0.2-0.3 0.4 0 0.1 0.1 0.2 0.1 0.2 0 0 0 0 0 0 0.1-0.2 0.2-0.3 0.3-0.5C57.5 62 57.5 62 57.4 62z"/><path class="st0" d="M59.6 55.5c-0.3 0-0.3 0.2-0.3 0.4s0.2 0.2 0.3 0.2 0 0 0 0l0.1-0.5C59.7 55.6 59.7 55.6 59.6 55.5z"/><path class="st0" d="M58.5 58.8c-0.2 0-0.4 0.1-0.3 0.3 0 0.2 0.2 0.3 0.3 0.2 0 0 0.1 0 0.1 0 0.1-0.1 0.1-0.3 0.1-0.4C58.8 58.9 58.7 58.8 58.5 58.8 58.6 58.8 58.6 58.8 58.5 58.8z"/><path class="st0" d="M14.3 51.8c0.1 0 0.3-0.1 0.3-0.2 0 0 0-0.1 0-0.1 0-0.2-0.1-0.3-0.3-0.3 0 0-0.1 0-0.1 0 -0.1 0-0.1 0.2-0.2 0.4S14.1 51.8 14.3 51.8z"/><path class="st0" d="M12.4 55.8c0-0.2-0.2-0.2-0.3-0.3l0 0c0.1 0.2 0.1 0.4 0.1 0.6C12.3 56.1 12.4 56 12.4 55.8 12.4 55.8 12.4 55.8 12.4 55.8z"/><path class="st0" d="M12.4 53.7c0-0.2-0.1-0.3-0.3-0.3 0 0-0.1 0-0.1 0 -0.1 0-0.1 0.2-0.2 0.4s0.1 0.2 0.3 0.2C12.2 54 12.4 53.9 12.4 53.7 12.4 53.7 12.4 53.7 12.4 53.7z"/><path class="st0" d="M12 49.1c-0.2 0-0.1 0.2-0.2 0.3s0.1 0.3 0.3 0.3 0.4-0.1 0.3-0.4S12.2 49.1 12 49.1z"/><path class="st0" d="M12 51.2c-0.3 0-0.2 0.2-0.2 0.3s0.1 0.3 0.3 0.3 0.3 0 0.3-0.3S12.3 51.3 12 51.2z"/><path class="st0" d="M11.1 50.8c0.2 0 0.2-0.2 0.3-0.3s-0.1-0.3-0.3-0.3 -0.3 0-0.3 0.2S10.8 50.8 11.1 50.8z"/><path class="st0" d="M12.4 47.1c0-0.2-0.2-0.2-0.4-0.2s-0.1 0.2-0.1 0.3 0.1 0.3 0.3 0.3S12.4 47.4 12.4 47.1z"/><path class="st0" d="M10.7 48.2c0 0.2 0.1 0.4 0.3 0.4s0.3-0.1 0.3-0.3 0-0.3-0.2-0.3S10.7 48 10.7 48.2z"/><path class="st0" d="M11.1 46.4c0.2 0 0.2-0.2 0.2-0.3s-0.1-0.2-0.3-0.2 -0.3 0-0.3 0.3S10.8 46.5 11.1 46.4z"/><path class="st0" d="M13.3 52.9c0.2 0 0.2-0.2 0.2-0.3s-0.1-0.2-0.3-0.2 -0.3 0.1-0.3 0.3S13 52.9 13.3 52.9z"/><path class="st0" d="M11.8 44.9c-0.1 0.2-0.1 0.4 0.1 0.5 0.2 0.1 0.3 0 0.4-0.2 0.1-0.2 0-0.3-0.2-0.4C12.1 44.7 11.9 44.7 11.8 44.9z"/><path class="st0" d="M9.9 43.2c0.2 0 0.4-0.1 0.3-0.4s-0.2-0.2-0.4-0.2 -0.1 0.2-0.2 0.3S9.7 43.2 9.9 43.2z"/><path class="st0" d="M10.2 40.7c0-0.2-0.2-0.2-0.4-0.2s-0.1 0.2-0.1 0.3S9.7 41 9.9 41 10.3 40.9 10.2 40.7z"/><path class="st0" d="M9.9 45.4c0.1 0 0.3 0 0.3-0.3s-0.1-0.3-0.4-0.4 -0.2 0.2-0.2 0.3S9.7 45.3 9.9 45.4z"/><path class="st0" d="M10 47.5c0.2 0 0.3-0.1 0.3-0.3 0-0.2-0.2-0.3-0.3-0.3 -0.3 0-0.3 0.2-0.3 0.4S9.8 47.5 10 47.5z"/><path class="st0" d="M13.2 48c-0.1 0-0.3 0-0.3 0.3s0.1 0.3 0.4 0.3 0.2-0.2 0.2-0.3C13.5 48.1 13.4 48 13.2 48 13.2 48 13.2 48 13.2 48z"/><path class="st0" d="M11.3 41.9c0-0.2 0-0.3-0.1-0.4s-0.4-0.1-0.4 0.2c0 0.1 0 0.3 0.2 0.3 0 0 0 0 0 0C11.1 42.2 11.2 42.1 11.3 41.9 11.3 42 11.3 41.9 11.3 41.9z"/><path class="st0" d="M13.3 50.7c0.1 0 0.2-0.2 0.2-0.4s-0.2-0.2-0.3-0.2c-0.1 0-0.2 0.1-0.3 0.2 0 0 0 0 0 0.1C12.9 50.7 13.1 50.8 13.3 50.7z"/><path class="st0" d="M14.3 54c0.1 0 0.3-0.1 0.3-0.2 0 0 0-0.1 0-0.1 0-0.2-0.1-0.3-0.3-0.3 0 0-0.1 0-0.1 0 -0.1 0-0.1 0.2-0.2 0.4S14.1 54 14.3 54z"/><path class="st0" d="M15.4 55.1c0.2 0 0.3-0.1 0.3-0.3s0-0.3-0.3-0.3c-0.1 0-0.3 0-0.3 0.2S15.1 55.1 15.4 55.1z"/><path class="st0" d="M17.5 65.9c0.2 0 0.2-0.2 0.2-0.3s-0.1-0.3-0.3-0.3 -0.4 0.1-0.3 0.3C17.2 65.8 17.4 65.9 17.5 65.9z"/><path class="st0" d="M18.9 68.8c0-0.2-0.2-0.2-0.3-0.3s-0.2 0.1-0.2 0.3l0.2 0.3C18.7 69.1 18.9 69 18.9 68.8z"/><path class="st0" d="M21 70.9c0-0.2-0.2-0.2-0.3-0.3s-0.2 0.1-0.2 0.3 0 0.3 0.2 0.3S21 71.2 21 70.9z"/><path class="st0" d="M20.7 59.9c-0.3 0-0.2 0.2-0.2 0.3s0.1 0.3 0.3 0.3 0.3 0 0.3-0.3S20.9 59.9 20.7 59.9z"/><path class="st0" d="M20.7 68.5c-0.3 0-0.3 0.2-0.3 0.4s0.2 0.2 0.3 0.2S21 69 21 68.8C21 68.6 20.9 68.5 20.7 68.5z"/><path class="st0" d="M17.6 61.5c0.1 0 0.2-0.2 0.2-0.4s-0.2-0.2-0.3-0.2c-0.1 0-0.2 0.1-0.3 0.2 0 0 0 0 0 0.1C17.2 61.5 17.4 61.6 17.6 61.5z"/><path class="st0" d="M17.5 63.7c0.2 0 0.3-0.1 0.3-0.3s0-0.3-0.2-0.3 -0.3 0-0.4 0.2C17.1 63.5 17.2 63.6 17.5 63.7 17.4 63.7 17.5 63.7 17.5 63.7z"/><path class="st0" d="M25.1 57.7c-0.3-0.1-0.3 0.2-0.3 0.3s0.1 0.3 0.3 0.3 0.3-0.1 0.3-0.3C25.3 57.9 25.2 57.7 25.1 57.7z"/><path class="st0" d="M17.5 56.6c-0.1 0-0.3 0-0.3 0.3s0.1 0.3 0.4 0.3 0.2-0.2 0.2-0.3C17.8 56.8 17.7 56.6 17.5 56.6 17.6 56.6 17.5 56.6 17.5 56.6z"/><path class="st0" d="M18.4 62c-0.1 0-0.1 0.2-0.2 0.4s0.1 0.2 0.3 0.2c0.1 0 0.3-0.1 0.3-0.2 0 0 0 0 0-0.1 0-0.2-0.1-0.3-0.3-0.3C18.5 62 18.5 62 18.4 62z"/><path class="st0" d="M17.5 58.8c-0.1 0-0.3 0-0.4 0.2s0.1 0.4 0.3 0.4 0.3-0.1 0.3-0.3S17.8 58.8 17.5 58.8z"/><path class="st0" d="M25 56.2c0.1 0 0.3 0 0.3-0.3 0-0.2-0.1-0.3-0.3-0.3 -0.2 0-0.3 0-0.3 0.2S24.7 56.2 25 56.2z"/><path class="st0" d="M24 61.5c0.2 0 0.2-0.2 0.2-0.3S24.2 60.9 24 61s-0.4 0.1-0.3 0.3C23.7 61.5 23.8 61.6 24 61.5z"/><path class="st0" d="M23.9 63.1c-0.1 0-0.3 0-0.3 0.3s0.1 0.3 0.4 0.3 0.2-0.2 0.2-0.3S24.1 63.1 23.9 63.1z"/><path class="st0" d="M24 56.6c-0.1 0-0.3 0-0.3 0.3s0.1 0.3 0.4 0.3 0.2-0.2 0.2-0.3S24.2 56.6 24 56.6z"/><path class="st0" d="M23.9 58.8c-0.1 0-0.3 0-0.3 0.3s0.1 0.3 0.4 0.3 0.2-0.2 0.2-0.3S24.1 58.8 23.9 58.8z"/><path class="st0" d="M23.7 72.1c0 0.2 0.2 0.3 0.3 0.2 0.2 0 0.2-0.2 0.2-0.3s-0.1-0.3-0.3-0.3S23.6 71.8 23.7 72.1z"/><path class="st0" d="M24 68c0.1 0 0.3-0.1 0.3-0.2 0 0 0 0 0 0 0-0.2 0-0.3-0.2-0.3s-0.4 0-0.4 0.3C23.7 67.9 23.8 68 24 68z"/><path class="st0" d="M24 65.9c0.2 0 0.3-0.1 0.3-0.3s0-0.3-0.3-0.3c-0.1 0-0.3 0-0.3 0.2S23.8 65.9 24 65.9z"/><path class="st0" d="M24 70.2c0.1 0 0.3-0.1 0.3-0.2 0 0 0 0 0 0 0-0.2 0-0.3-0.2-0.3s-0.4 0-0.4 0.3C23.7 70 23.8 70.2 24 70.2z"/><path class="st0" d="M18.6 64.2c-0.2-0.1-0.3 0-0.3 0.2s0 0.4 0.3 0.4 0.3 0 0.3-0.3C18.9 64.4 18.8 64.2 18.6 64.2z"/><path class="st0" d="M20.8 67c0.1 0 0.3-0.1 0.3-0.2 0 0 0-0.1 0-0.1 0-0.2-0.1-0.3-0.3-0.3 0 0-0.1 0-0.1 0 -0.1 0-0.1 0.2-0.2 0.4S20.6 67 20.8 67z"/><path class="st0" d="M21.7 72.3c0.2 0 0.3 0 0.4-0.2s0-0.3-0.1-0.3 -0.4-0.1-0.4 0.2C21.5 72.1 21.6 72.3 21.7 72.3 21.7 72.3 21.7 72.3 21.7 72.3z"/><path class="st0" d="M21 64.6c0.1-0.2 0-0.3-0.2-0.4 -0.1-0.1-0.3-0.1-0.4 0.1s-0.1 0.4 0.1 0.5C20.8 64.8 20.9 64.8 21 64.6z"/><path class="st0" d="M20.7 62c-0.2 0-0.2 0.2-0.2 0.3s0 0.3 0.3 0.3 0.4-0.1 0.3-0.3S20.8 62.1 20.7 62z"/><path class="st0" d="M18.6 58.3c0.1 0 0.3-0.1 0.3-0.2 0 0 0 0 0-0.1 0-0.2-0.1-0.3-0.3-0.3 0 0-0.1 0-0.1 0 -0.1 0-0.1 0.2-0.2 0.4S18.4 58.3 18.6 58.3z"/><path class="st0" d="M22.1 59.1c0-0.2 0-0.3-0.2-0.3s-0.3 0-0.4 0.2c-0.1 0.2 0 0.3 0.2 0.4 0 0 0.1 0 0.1 0C22 59.4 22.1 59.3 22.1 59.1z"/><path class="st0" d="M21.9 63.7c0.2 0 0.2-0.2 0.3-0.3s-0.1-0.3-0.3-0.3 -0.3 0-0.3 0.2S21.6 63.7 21.9 63.7z"/><path class="st0" d="M21.8 65.9c0.2 0 0.3-0.1 0.3-0.3s0-0.3-0.2-0.3 -0.3 0-0.4 0.2C21.5 65.6 21.6 65.8 21.8 65.9 21.7 65.9 21.8 65.9 21.8 65.9z"/><path class="st0" d="M21.8 68c0.2 0 0.3-0.1 0.3-0.3s0-0.3-0.3-0.3c-0.1 0-0.3 0-0.3 0.2S21.6 68 21.8 68z"/><path class="st0" d="M21.9 70.2c0.2 0 0.2-0.2 0.2-0.3s-0.1-0.2-0.3-0.2 -0.3 0-0.3 0.3S21.6 70.2 21.9 70.2z"/><path class="st0" d="M22.8 57.7c-0.2 0-0.2 0.2-0.2 0.3s0.1 0.3 0.3 0.3 0.3 0 0.3-0.3S23 57.7 22.8 57.7z"/><path class="st0" d="M18.5 66.3c-0.2 0-0.2 0.2-0.2 0.3s0 0.3 0.3 0.3 0.4-0.1 0.3-0.3S18.7 66.4 18.5 66.3z"/><path class="st0" d="M19.7 67.4c-0.1 0-0.3 0-0.3 0.2s0.1 0.4 0.3 0.4 0.2-0.2 0.3-0.3S19.9 67.4 19.7 67.4z"/><path class="st0" d="M18.5 60.5c0.2 0 0.4-0.1 0.3-0.3s-0.2-0.2-0.3-0.3 -0.2 0.2-0.2 0.3S18.3 60.5 18.5 60.5z"/><path class="st0" d="M19.7 58.8c-0.1 0-0.3 0-0.3 0.2s0.1 0.4 0.3 0.4 0.2-0.2 0.3-0.3S19.9 58.8 19.7 58.8z"/><path class="st0" d="M19.7 65.9c0.2 0 0.2-0.2 0.2-0.3s-0.1-0.3-0.3-0.3 -0.4 0.1-0.3 0.3C19.4 65.8 19.5 65.9 19.7 65.9z"/><path class="st0" d="M19.6 69.6c-0.1 0-0.3 0-0.3 0.3s0.1 0.3 0.4 0.3 0.2-0.2 0.2-0.3S19.8 69.6 19.6 69.6z"/><path class="st0" d="M19.7 63.1c-0.1 0-0.3 0-0.3 0.2s0.1 0.4 0.3 0.4 0.2-0.2 0.3-0.3S19.9 63.1 19.7 63.1z"/><path class="st0" d="M19.6 61.5c0.2 0 0.3-0.1 0.3-0.3s0-0.3-0.2-0.3 -0.3 0-0.4 0.2C19.3 61.3 19.4 61.5 19.6 61.5 19.6 61.5 19.6 61.5 19.6 61.5z"/><path class="st0" d="M25 59.9c-0.3 0-0.3 0.2-0.2 0.4s0.2 0.2 0.4 0.2 0.3-0.1 0.2-0.3S25.2 59.9 25 59.9z"/><path class="st0" d="M39.9 56c0 0.2 0.2 0.2 0.3 0.2s0.3-0.1 0.2-0.3 -0.2-0.3-0.3-0.3S39.9 55.8 39.9 56z"/><path class="st0" d="M41.3 54.5c-0.2 0-0.4 0.1-0.3 0.3 0 0.2 0.2 0.3 0.3 0.2 0.2 0 0.2-0.2 0.2-0.3S41.5 54.5 41.3 54.5z"/><path class="st0" d="M42 55.8c0 0.2 0 0.3 0.2 0.4s0.4 0 0.4-0.3c0-0.2-0.1-0.3-0.2-0.3 0 0 0 0 0 0C42.1 55.5 42.1 55.6 42 55.8z"/><path class="st0" d="M41 56.9c0 0.2 0.1 0.3 0.3 0.3 0.1 0 0.3-0.1 0.3-0.2 0 0 0 0 0 0 0-0.2 0-0.3-0.2-0.3S40.9 56.7 41 56.9z"/><path class="st0" d="M43.5 55.1c0.2 0 0.2-0.2 0.2-0.3s-0.1-0.2-0.3-0.2 -0.3 0.1-0.3 0.3c0 0.2 0.1 0.3 0.3 0.3C43.4 55.1 43.5 55.1 43.5 55.1z"/><path class="st0" d="M44.5 58.3c0.2 0 0.3 0 0.3-0.3 0-0.2-0.1-0.3-0.3-0.3 -0.2 0-0.3 0-0.3 0.2S44.2 58.3 44.5 58.3z"/><path class="st0" d="M45.3 59c0 0.2 0.1 0.4 0.3 0.4s0.2-0.2 0.3-0.3 -0.1-0.3-0.3-0.3S45.3 58.8 45.3 59z"/><path class="st0" d="M43.4 57.2c0.2 0 0.3-0.1 0.3-0.3s0-0.3-0.3-0.3 -0.3 0-0.3 0.2C43.1 57 43.2 57.2 43.4 57.2 43.4 57.2 43.4 57.2 43.4 57.2z"/><path class="st0" d="M44.5 56.2c0.2 0 0.4-0.1 0.3-0.4s-0.2-0.2-0.4-0.2 -0.1 0.2-0.2 0.3S44.3 56.2 44.5 56.2z"/><path class="st0" d="M29.2 55.5c-0.1 0-0.1 0.2-0.1 0.3s0.1 0.3 0.3 0.3 0.4-0.1 0.3-0.4S29.5 55.6 29.2 55.5z"/><path class="st0" d="M30.4 57.2c0.2 0 0.3 0 0.4-0.2s0-0.3-0.1-0.3 -0.4-0.1-0.4 0.2C30.1 57 30.2 57.2 30.4 57.2 30.4 57.2 30.4 57.2 30.4 57.2z"/><path class="st0" d="M31.2 55.9c0 0.2 0.1 0.3 0.3 0.3s0.3 0 0.3-0.3 -0.1-0.3-0.4-0.4S31.3 55.7 31.2 55.9z"/><path class="st0" d="M39.2 55.1c0.2 0 0.2-0.2 0.2-0.3s0-0.1 0-0.1c-0.2 0.1-0.3 0.2-0.5 0.3C39 55 39.1 55.1 39.2 55.1z"/><path class="st0" d="M36.9 56.7c-0.2 0-0.3 0-0.3 0.3 0 0.2 0.1 0.3 0.3 0.3 0 0 0.1 0 0.1 0 0.2 0 0.2-0.2 0.2-0.3S37.1 56.6 36.9 56.7z"/><path class="st0" d="M30.7 54.8c0-0.1 0-0.3-0.2-0.3s-0.3 0-0.4 0.2c-0.1 0.2 0 0.3 0.2 0.4 0 0 0.1 0 0.1 0C30.6 55.1 30.7 55 30.7 54.8z"/><path class="st0" d="M32.7 55.1c0.1 0 0.2-0.1 0.2-0.1 -0.2-0.1-0.3-0.2-0.5-0.3 0 0.1 0 0.1 0 0.2C32.3 55 32.4 55.1 32.7 55.1z"/><path class="st0" d="M34.5 56.8c0 0.2 0.1 0.3 0.2 0.4 0 0 0.1 0 0.1 0 0.2 0 0.3-0.1 0.3-0.3s0-0.3-0.2-0.3S34.5 56.6 34.5 56.8z"/><path class="st0" d="M37.7 55.9c0 0.2 0.1 0.3 0.3 0.3s0.3 0 0.3-0.3 -0.1-0.3-0.3-0.4S37.7 55.7 37.7 55.9z"/><path class="st0" d="M45.5 56.6c-0.2 0-0.3 0.1-0.3 0.3 0 0.2 0.1 0.3 0.3 0.3 0 0 0.1 0 0.1 0 0.2 0 0.2-0.2 0.2-0.4S45.7 56.6 45.5 56.6z"/><path class="st0" d="M33.4 56c0 0.2 0.2 0.2 0.3 0.2S34 56 34 55.8s-0.2-0.3-0.3-0.3S33.4 55.8 33.4 56z"/><path class="st0" d="M22.9 71.3c0.2 0 0.3-0.1 0.3-0.3 0-0.2-0.1-0.3-0.3-0.3 -0.3-0.1-0.3 0.2-0.3 0.3S22.7 71.3 22.9 71.3z"/><path class="st0" d="M28.3 54.5c-0.1 0-0.3 0-0.4 0.2s0.1 0.4 0.3 0.4 0.3-0.1 0.3-0.3S28.5 54.5 28.3 54.5z"/><path class="st0" d="M25.3 73.3c0.1-0.2 0-0.3-0.2-0.4 -0.1-0.1-0.3-0.1-0.4 0.1s-0.1 0.4 0.1 0.5C25.1 73.5 25.3 73.4 25.3 73.3z"/><path class="st0" d="M26.4 56.9c0-0.1 0-0.3-0.2-0.3s-0.3 0-0.4 0.2c-0.1 0.2 0 0.3 0.2 0.4 0 0 0.1 0 0.1 0C26.3 57.3 26.4 57.1 26.4 56.9z"/><path class="st0" d="M22.9 64.2c-0.3 0-0.3 0.2-0.3 0.4s0.2 0.2 0.3 0.2 0.3-0.1 0.3-0.3C23.2 64.3 23 64.2 22.9 64.2z"/><path class="st0" d="M22.8 62.6c0.2 0 0.4 0 0.4-0.3 0-0.2-0.1-0.3-0.2-0.3 0 0 0 0 0 0 -0.2 0-0.3 0-0.3 0.2S22.6 62.6 22.8 62.6z"/><path class="st0" d="M22.9 66.3c-0.3 0-0.3 0.2-0.3 0.4s0.2 0.2 0.3 0.2 0.3-0.1 0.3-0.3C23.2 66.5 23 66.3 22.9 66.3z"/><path class="st0" d="M22.8 68.5c-0.2 0-0.2 0.2-0.2 0.3s0 0.3 0.3 0.3 0.4-0.1 0.3-0.3S23 68.5 22.8 68.5z"/><path class="st0" d="M22.8 59.9c-0.1 0-0.1 0.2-0.2 0.4s0.1 0.2 0.3 0.2c0.1 0 0.3-0.1 0.3-0.2 0 0 0 0 0-0.1 0-0.2-0.1-0.3-0.3-0.3C22.8 59.9 22.8 59.9 22.8 59.9z"/><path class="st0" d="M24.9 70.7c-0.1 0-0.1 0.2-0.2 0.4s0.1 0.2 0.3 0.2c0.1 0 0.3-0.1 0.3-0.2 0 0 0 0 0-0.1 0-0.2-0.1-0.3-0.3-0.3C25 70.7 25 70.7 24.9 70.7z"/><path class="st0" d="M24.9 69.1c0.2 0.1 0.3 0 0.4-0.2 0.1-0.2 0-0.3-0.2-0.4 -0.1-0.1-0.3-0.1-0.4 0.1S24.6 69.1 24.9 69.1z"/><path class="st0" d="M26.2 59.4c0.2 0 0.2-0.2 0.2-0.3s-0.1-0.2-0.3-0.2 -0.3 0-0.3 0.3S26 59.4 26.2 59.4z"/><path class="st0" d="M26.2 70.2c0.1 0 0.2-0.2 0.2-0.4s-0.2-0.2-0.3-0.2c-0.1 0-0.2 0.1-0.3 0.2 0 0 0 0.1 0 0.1C25.9 70.1 26 70.3 26.2 70.2z"/><path class="st0" d="M24.3 74.2c0-0.2 0-0.3-0.2-0.3s-0.3 0-0.4 0.2c0 0 0 0 0 0.1l0.4 0.3C24.2 74.4 24.3 74.3 24.3 74.2z"/><path class="st0" d="M21.7 61.5c0.1 0.1 0.3 0 0.3-0.1 0 0 0 0 0-0.1 0-0.2 0-0.3-0.1-0.4s-0.4-0.1-0.4 0.2C21.5 61.3 21.6 61.5 21.7 61.5 21.7 61.5 21.7 61.5 21.7 61.5z"/><path class="st1" d="M25.3 33.7c0-0.6-0.5-1.1-1.1-1.1s-1.1 0.5-1.1 1.1c0 0.6 0.5 1.1 1.1 1.1C24.8 34.8 25.3 34.3 25.3 33.7L25.3 33.7zM23.9 33.7c0-0.2 0.1-0.3 0.3-0.3h0c0.2 0 0.3 0.1 0.3 0.3l0 0c0 0.2-0.1 0.3-0.3 0.3 0 0 0 0 0 0C24 34.1 23.9 33.9 23.9 33.7L23.9 33.7z"/><path class="st1" d="M26.2 31.9c-0.2 0-0.3 0-0.4 0.1 -0.1 0.1-0.1 0.3 0 0.4 0.3 0.4 0.4 0.8 0.4 1.2 0.1 1.1-0.8 2.1-1.9 2.2 -1.1 0.1-2.1-0.8-2.2-1.9 0-0.1 0-0.2 0-0.3 0-0.5 0.2-0.9 0.5-1.3 0.1-0.1 0.1-0.3 0-0.4 -0.1-0.1-0.2-0.2-0.4-0.2 -1.8 0.4-3.5 1-5.1 1.9 -0.1 0.1-0.2 0.2-0.2 0.3 0 0.1 0.1 0.3 0.2 0.3 2.4 1.5 5.2 2.4 8 2.5 1.8 0.1 3.6-0.6 4.9-1.9 0.1-0.1 0.1-0.3 0.1-0.5C29.2 33.3 27.8 32.3 26.2 31.9zM18.1 34.1c1.1-0.6 2.3-1 3.5-1.3 -0.1 0.3-0.2 0.7-0.2 1 0 0.8 0.3 1.5 0.9 2C20.8 35.3 19.4 34.8 18.1 34.1zM25.6 36.1c0.9-0.5 1.4-1.4 1.4-2.4 0-0.3 0-0.5-0.1-0.8 0.9 0.4 1.8 1 2.4 1.8C28.2 35.6 27 36.1 25.6 36.1z"/><path class="st1" d="M67.2 26.1c-0.5-0.1-1 0-1.5 0.1 -0.2-0.7-0.4-1.4-0.6-2.1l0.2-1.5C68.2-4.2 35.8 0.3 35.8 0.3l0 0c0 0-32.4-4.5-29.6 22.4l0.3 2.1c-0.2 0.5-0.3 1-0.4 1.5 -0.6-0.2-1.2-0.3-1.8-0.2 -3.2 0.4-5 5.7-4.1 11.9s4.1 10.7 7.3 10.3c0.1 0 0.2 0 0.3-0.1 0.6 1.4 1.2 2.8 2 4.1 2.6 16 13.6 27.6 26.1 27.6 3.2 0 6.4-0.8 9.2-2.2 0.1 0 0.2-0.1 0.3-0.1l0.5-0.3 0.4-0.2 0.1-0.1c7.4-4.1 13.2-12.5 15.3-23 0.3-0.7 0.5-1.4 0.5-2.1 0.7-1.2 1.3-2.4 1.8-3.7l0 0h0.4c3 0 6-4.4 6.8-10.3C72.2 31.8 70.4 26.6 67.2 26.1zM63.1 39.4c0.1 0.1 0.1 0.3 0 0.4 0 0 0 0 0 0l0 0c-0.3 0.3-0.4-0.1-0.6-0.3l0.5-0.2L63.1 39.4zM63.1 41.6c0.1 0.1 0.1 0.3 0 0.4 0 0 0 0 0 0l0 0c-0.3 0.3-0.4-0.1-0.6-0.3l0.5-0.2C63 41.5 63 41.5 63.1 41.6zM47.7 74.5c-0.2 0-0.3-0.2-0.3-0.3 0 0 0 0 0 0 0-0.2 0.2-0.2 0.3-0.2s0.2 0.1 0.2 0.3l0 0L47.7 74.5zM46.4 75.4L46.4 75.4c0 0 0-0.3 0.2-0.3 0.1 0 0.2 0 0.3 0.1L46.4 75.4zM9.8 49c0.2 0 0.4 0 0.4 0.3 0 0.1 0 0.2-0.1 0.3C10 49.4 9.9 49.2 9.8 49zM60.4 50.4c0-0.3 0.3-0.2 0.4-0.2s0.2 0.2 0.1 0.3 -0.2 0.3-0.4 0.2C60.5 50.7 60.4 50.5 60.4 50.4 60.4 50.4 60.4 50.4 60.4 50.4zM59.6 51.8c-0.2 0-0.3 0-0.3-0.2s0-0.4 0.3-0.4c0.2 0 0.3 0.1 0.3 0.3C59.9 51.7 59.8 51.8 59.6 51.8zM59.9 53.7c0 0.1 0 0.3-0.2 0.3 0 0-0.1 0-0.1 0 -0.2 0-0.3 0-0.3-0.2s0.1-0.3 0.2-0.4c0.2-0.1 0.3 0 0.4 0.2C59.9 53.6 59.9 53.7 59.9 53.7zM59.6 49.1c0.2 0 0.3 0.1 0.3 0.3 0 0.1 0 0.3-0.1 0.3 0 0-0.1 0-0.1 0 -0.2 0-0.3 0-0.3-0.2S59.3 49.1 59.6 49.1zM59.6 47.5c-0.2 0-0.3-0.1-0.3-0.3s0-0.3 0.2-0.3 0.4 0.1 0.4 0.4S59.7 47.5 59.6 47.5L59.6 47.5zM56.7 61.3c0 0.1-0.1 0.3-0.3 0.3 0 0 0 0 0 0 -0.2 0-0.3-0.1-0.3-0.3 0-0.3 0.2-0.3 0.4-0.3S56.7 61.1 56.7 61.3zM56.7 63.4c0 0.2-0.1 0.3-0.3 0.3 -0.2 0-0.3-0.2-0.3-0.3 0 0 0-0.1 0-0.1 0-0.2 0.2-0.2 0.4-0.2S56.7 63.3 56.7 63.4zM56.5 58.8c0.2 0 0.2 0.2 0.2 0.3 0 0.1-0.1 0.3-0.3 0.3 0 0 0 0 0 0 -0.2 0-0.3-0.2-0.3-0.3 0 0 0-0.1 0-0.1C56.1 58.8 56.3 58.8 56.5 58.8zM56.1 56.8c0-0.2 0.2-0.2 0.4-0.2s0.2 0.2 0.2 0.3c0 0.1-0.1 0.3-0.3 0.3 0 0 0 0 0 0C56.2 57.2 56.1 57.1 56.1 56.8 56.1 56.9 56.1 56.8 56.1 56.8L56.1 56.8zM56.4 55.1c-0.2 0-0.3-0.2-0.3-0.4s0.2-0.2 0.3-0.2 0.3 0.1 0.2 0.3S56.6 55.1 56.4 55.1L56.4 55.1zM54.2 61c0.2 0 0.3 0 0.3 0.2s0 0.3-0.2 0.3c-0.2 0-0.3 0-0.4-0.2 0 0 0-0.1 0-0.1C53.9 61 54 61 54.2 61zM53.9 59c0-0.2 0.2-0.2 0.3-0.2s0.3 0.1 0.2 0.3 -0.1 0.3-0.3 0.3S53.9 59.2 53.9 59zM54.2 63.1c0.2 0 0.3 0 0.3 0.2s0 0.3-0.2 0.4c-0.2 0-0.3-0.1-0.4-0.2 0 0 0-0.1 0-0.1C53.9 63.2 54 63.1 54.2 63.1L54.2 63.1zM54.2 65.3c0.2 0 0.3 0.1 0.3 0.3s0 0.3-0.2 0.3 -0.3-0.1-0.4-0.3S54.1 65.3 54.2 65.3L54.2 65.3zM55.2 58.3C54.9 58.2 55 58 55 57.8s0.2-0.2 0.4-0.1c0.2 0.1 0.2 0.2 0.2 0.4C55.5 58.3 55.3 58.4 55.2 58.3L55.2 58.3zM55.6 60.1c0 0.1 0 0.3-0.2 0.3 0 0 0 0-0.1 0 -0.2 0-0.3 0-0.3-0.2s-0.1-0.4 0.2-0.4S55.5 59.9 55.6 60.1L55.6 60.1zM55 62.3c0-0.2 0-0.3 0.3-0.3s0.3 0.1 0.3 0.3 -0.1 0.3-0.3 0.3S55 62.5 55 62.3zM55.2 64.2c0.2-0.1 0.3 0 0.4 0.2 0 0 0 0.1 0 0.1 0 0.1 0 0.3-0.2 0.3 0 0-0.1 0-0.1 0 -0.2 0-0.3 0-0.3-0.2S55.1 64.2 55.2 64.2zM55.3 56.2c-0.2 0-0.3-0.1-0.3-0.3s0-0.3 0.2-0.3 0.4 0.1 0.4 0.4S55.4 56.1 55.3 56.2L55.3 56.2zM57.4 51.9c-0.2 0-0.3-0.1-0.3-0.3s0-0.3 0.2-0.3 0.3 0 0.4 0.2S57.7 51.8 57.4 51.9L57.4 51.9zM57.4 53.4c0.2 0 0.3 0.2 0.3 0.3 0 0.2-0.1 0.3-0.3 0.3s-0.3 0-0.3-0.3S57.2 53.3 57.4 53.4L57.4 53.4zM57.4 55.6c0.2 0 0.3 0.1 0.3 0.3 0 0.1-0.1 0.3-0.2 0.3 0 0 0 0-0.1 0 -0.2 0-0.3 0-0.3-0.2S57.1 55.5 57.4 55.6L57.4 55.6zM57.4 58.4c-0.2 0-0.3-0.1-0.3-0.3s0-0.3 0.2-0.3 0.3 0.1 0.3 0.3S57.6 58.3 57.4 58.4L57.4 58.4zM57.3 59.9c0.2 0 0.3 0 0.4 0.2s-0.1 0.4-0.3 0.4 -0.3-0.1-0.3-0.3S57.1 59.9 57.3 59.9L57.3 59.9zM58.6 50.2c0.2 0 0.2 0.2 0.2 0.3s-0.1 0.3-0.3 0.3c-0.2 0-0.3-0.1-0.3-0.3 0 0 0-0.1 0-0.1C58.3 50.2 58.4 50.2 58.6 50.2L58.6 50.2zM58.7 56.7c0.2 0 0.2 0.2 0.1 0.3 -0.1 0.3-0.2 0.3-0.4 0.2s-0.2-0.2-0.2-0.3S58.5 56.6 58.7 56.7L58.7 56.7zM58.3 54.8c0-0.2 0.2-0.2 0.3-0.3s0.3 0.1 0.3 0.3 0 0.3-0.2 0.3S58.2 55 58.3 54.8L58.3 54.8zM58.8 52.7c-0.1 0.3-0.2 0.3-0.4 0.2 -0.2 0-0.2-0.2-0.2-0.3 0 0 0 0 0 0 0-0.3 0.3-0.2 0.4-0.2S58.8 52.5 58.8 52.7L58.8 52.7zM60.7 48c0.2 0 0.3 0 0.3 0.2s0 0.3-0.2 0.3 -0.3-0.1-0.4-0.3S60.5 48 60.7 48zM60.4 46.1c0-0.2 0.2-0.2 0.3-0.3s0.3 0.1 0.3 0.3 0 0.3-0.2 0.3S60.4 46.3 60.4 46.1zM61 44c-0.1 0.3-0.2 0.3-0.4 0.2 -0.2 0-0.2-0.2-0.2-0.3 0 0 0 0 0 0 0-0.3 0.3-0.2 0.4-0.2S61 43.9 61 44zM61.5 44.9c0-0.2 0.2-0.2 0.4-0.1 0.2 0.1 0.2 0.2 0.2 0.4 -0.1 0.1-0.2 0.2-0.4 0.2C61.4 45.3 61.5 45.1 61.5 44.9L61.5 44.9zM61.5 42.7c0-0.2 0.2-0.2 0.4-0.1 0.2 0.1 0.2 0.2 0.2 0.4 -0.1 0.1-0.2 0.2-0.4 0.2C61.4 43.1 61.5 42.9 61.5 42.7L61.5 42.7zM61.7 46.9c0.2 0 0.3 0.1 0.3 0.3 0 0.1 0 0.3-0.1 0.3 0 0-0.1 0-0.1 0 -0.2 0-0.3 0-0.3-0.2S61.4 46.9 61.7 46.9L61.7 46.9zM61.7 41c-0.2 0-0.3 0-0.3-0.3s0-0.4 0.3-0.3c0.2 0 0.3 0.2 0.3 0.3C62.1 41 61.9 41 61.7 41L61.7 41zM60.9 32.8L60.9 32.8 60.8 33h0.1c0 0.3 0 0.6 0 0.9l0 0v0.5c-0.2 2.9-0.4 5.3-0.4 5.3l0.6-0.3c-0.2 1.6-0.6 3.2-1.3 4.7 -0.1 0.2-0.3 0.4 0 0.6s0.3 0.5-0.1 0.5c-0.7 0.1-0.6 0.6-0.8 1 -0.6 1.4-1.2 2.8-1.9 4.2 -0.6 1-0.9 2.2-1.4 3.2s-1.2 1.9-1.8 3l0 0 0 0H54c0.2 0 0.5-0.2 0.5 0.2 0 0.1 0 0.2-0.1 0.3 -0.4 0.1-0.4-0.2-0.5-0.4l-0.1-0.1h-0.1l0 0c-0.5 0.2-0.6 0.6-0.9 0.9l0.2 0.1c0.2 0 0.4 0.1 0.4 0.4 0 0.1-0.1 0.2-0.2 0.2 -0.4 0.1-0.4-0.2-0.4-0.4s-0.1-0.2-0.2-0.2c-0.6 0.3-1.4 0.8-1.9 0.3s-1-1-1.5-1.5c-0.9-1-1.8-2.1-3.4-2.1 0 0.1 0 0.2 0 0.3 0 0.1 0 0.3-0.2 0.3 -0.1 0-0.3 0-0.4-0.2 0 0 0 0 0 0 0-0.1 0-0.2 0-0.3 0.1-0.1 0.2-0.1 0.3-0.1 -1.5-1.1-3.2-0.6-4.8-0.7h-0.5c1.7 0.1 3.2-1.2 3.3-2.9 0-0.2 0-0.3 0-0.5 0.1-1.7-1.2-3.2-2.9-3.3v1c1.3 0.3 2.1 1.5 1.9 2.8 -0.2 0.9-0.9 1.7-1.9 1.9 -0.1 0-0.3 0-0.4-0.1l-0.3-0.1L39.6 53c-0.9 1.2-2.3 1.9-3.8 1.8 -0.7 0-1.5-0.2-2.2-0.5l-0.2-0.1c-0.6-0.3-1.1-0.7-1.4-1.3l-0.2-0.3 -0.4 0.2c-0.2 0.1-0.4 0.1-0.6 0.1 -1.3-0.3-2.1-1.5-1.9-2.8 0.2-0.9 0.9-1.7 1.9-1.9v-1c-1.7 0.1-3 1.6-2.9 3.3 0 2 1.6 3.7 3.4 3.3l0.1 0.1h-1.1c-1.3 0-2.6 0.1-3.9 0.5 0 0.1 0 0.2 0 0.3 0 0.8-0.5 0.5-0.8 0.3 -0.1-0.1-0.3-0.1-0.4-0.1 -1 0.6-1.8 1.3-2.5 2.1 -1.7 1.9-2.3 2-4-0.2 -0.8-0.9-1.4-1.9-1.8-3h0c-0.1 0-0.1 0.1-0.1 0.1 -0.1 0.2-0.3 0.3-0.5 0.2 -0.1-0.1-0.1-0.3 0-0.4 0.1-0.1 0.2-0.2 0.4-0.1 0 0 0 0 0 0 0.1 0.1 0.2 0.1 0.3 0.2l0 0 0 0 0 0c-0.4-1.6-1.7-2.8-2.2-4.4h-0.1l-0.1 0.1c-0.1 0.2-0.3 0.4-0.6 0.2 0-0.1 0-0.2 0-0.3 0.1-0.3 0.3-0.3 0.4-0.2 0.1 0.1 0.2 0.1 0.3 0.2l0 0 0 0 0 0 0 0 0 0c-0.4-1.6-1.7-2.8-2-4.4 -0.2-1.1-1-2-1.1-3.2s-0.7-2-0.7-3.2c0-1.6-0.2-3.2-0.2-4.8h-0.2c-0.1-3-0.1-6.3 0.5-8 1.2-3.7 6-12 8.5-12.6s7.8 2.4 10.6 4.9c1.5 1.4 3.4 2.4 5.4 2.8H36c2-0.4 3.9-1.3 5.4-2.8 2.8-2.5 8-5.5 10.6-4.9s7.3 8.9 8.5 12.6C60.9 27.9 61.1 30.3 60.9 32.8L60.9 32.8zM53.1 68.5c0.2 0 0.3 0.1 0.3 0.3 0 0.2-0.1 0.3-0.3 0.3s-0.3 0-0.3-0.2S52.8 68.5 53.1 68.5zM52.9 66.5c0-0.2 0.2-0.2 0.4-0.1 0.2 0.1 0.2 0.2 0.2 0.4C53.4 67 53.2 67.1 53 67c0 0 0 0 0 0C52.7 66.9 52.8 66.7 52.9 66.5L52.9 66.5zM53.1 64.8c-0.2 0-0.3 0-0.3-0.3s0-0.4 0.3-0.3c0.2 0 0.3 0.2 0.3 0.3C53.4 64.7 53.3 64.8 53.1 64.8L53.1 64.8zM53.1 62.1c0.2 0 0.3 0.1 0.3 0.3 0 0.2-0.1 0.3-0.3 0.3s-0.3 0-0.3-0.2S52.8 62 53.1 62.1L53.1 62.1zM53.1 59.9c0.2 0 0.3 0.1 0.3 0.3 0 0.2-0.1 0.3-0.3 0.3s-0.3 0-0.3-0.2S52.8 59.8 53.1 59.9L53.1 59.9zM52.1 68.1c-0.2 0-0.3-0.2-0.3-0.4s0.2-0.2 0.3-0.2 0.3 0.1 0.2 0.3S52.3 68 52.1 68.1L52.1 68.1zM52.4 69.9c0 0.2 0 0.3-0.2 0.3 -0.2 0-0.3-0.1-0.3-0.2 -0.1-0.3 0.1-0.3 0.3-0.3S52.4 69.7 52.4 69.9L52.4 69.9zM51.8 65.6c0-0.3 0.2-0.3 0.4-0.3s0.2 0.2 0.2 0.3c0 0.1-0.1 0.3-0.3 0.3 0 0 0 0 0 0C51.9 65.9 51.8 65.8 51.8 65.6 51.7 65.6 51.7 65.6 51.8 65.6L51.8 65.6zM52.1 63.7c-0.2 0-0.3-0.1-0.3-0.2 -0.1-0.3 0.1-0.3 0.3-0.3s0.3 0.1 0.3 0.3S52.3 63.7 52.1 63.7L52.1 63.7zM52 61c0.2 0 0.4 0 0.3 0.2s-0.1 0.3-0.2 0.4 -0.4 0-0.4-0.3S51.8 61 52 61zM51.8 59c0-0.2 0.2-0.2 0.4-0.2s0.2 0.2 0.2 0.3c0 0.1-0.1 0.3-0.3 0.3 0 0 0 0 0 0 -0.2 0-0.3-0.1-0.3-0.3C51.7 59.1 51.7 59 51.8 59L51.8 59zM50.9 60.5c-0.2 0-0.2-0.2-0.2-0.4s0.1-0.3 0.3-0.2c0.2 0 0.3 0.1 0.3 0.3 0 0 0 0 0 0C51.3 60.5 51 60.5 50.9 60.5L50.9 60.5zM51.3 62.3c0 0.3-0.1 0.3-0.3 0.3s-0.2-0.2-0.2-0.3 0-0.3 0.3-0.3S51.2 62.1 51.3 62.3L51.3 62.3zM50.7 66.7c0-0.2 0-0.3 0.3-0.3s0.3 0.1 0.3 0.3S51.1 67 50.9 67 50.7 66.8 50.7 66.7L50.7 66.7zM51 69.1c-0.3 0-0.3-0.2-0.3-0.4s0.1-0.3 0.3-0.2c0.2 0 0.3 0.2 0.3 0.3C51.3 69.1 51.1 69.1 51 69.1L51 69.1zM51.3 71c0 0.2 0 0.3-0.2 0.3s-0.3 0-0.3-0.2 -0.1-0.4 0.2-0.4S51.2 70.7 51.3 71L51.3 71zM51 64.8c-0.2 0-0.3 0-0.3-0.2s0-0.4 0.3-0.4c0.2 0 0.3 0.1 0.3 0.3C51.3 64.6 51.2 64.8 51 64.8 51 64.8 51 64.8 51 64.8zM48.7 71.3c-0.2 0-0.2-0.2-0.2-0.4s0.1-0.3 0.2-0.2 0.3 0.2 0.3 0.3S48.9 71.3 48.7 71.3L48.7 71.3zM49.1 73.1c0 0.2 0 0.3-0.3 0.3s-0.3 0-0.3-0.2 0-0.4 0.3-0.4C48.9 72.8 49.1 73 49.1 73.1L49.1 73.1zM47.8 70.2c-0.2 0-0.3-0.1-0.3-0.3 0 0 0-0.1 0-0.1 0-0.2 0.2-0.2 0.3-0.2s0.2 0.1 0.2 0.3S47.9 70.2 47.8 70.2L47.8 70.2zM48 72c0 0.1-0.1 0.3-0.2 0.4s-0.4 0-0.4-0.3c0-0.1 0-0.2 0.2-0.3 0 0 0.1 0 0.1 0C47.8 71.7 48 71.8 48 72zM47.4 67.7c0-0.2 0.2-0.2 0.3-0.2s0.3 0.1 0.2 0.3 -0.1 0.3-0.3 0.3S47.4 67.9 47.4 67.7L47.4 67.7zM48 65.8c-0.2 0.3-0.4 0.1-0.6 0.1l-1 2.3 -1.4 1.5c-0.4 0.2-1-0.1-1.2 0.5 -0.1 0.2-0.3 0.2-0.5 0 -1-1-2.5-1.5-3.5-2.4 -0.3 0.1-0.3 0.6-0.7 0.3s-0.2-0.5 0.2-0.5c0-0.2-0.1-0.5-0.2-0.7 3.3-0.5 5.5-1.9 5.5-3.6h-1c0 1.3-3.2 2.8-7.7 2.8s-7.7-1.5-7.7-2.8h-1c0 1.9 2.7 3.3 6.5 3.7 -0.4 0.5-0.7 1.2-1.5 1.2 -0.1 0-0.3 0.1-0.3 0.2 0 0.7 0.1 0.9-0.8 0.6 -0.6-0.2-1.6 0.5-2.3 1 -0.4 0.3-0.4 0.1-0.8 0 -1.4-0.6-1.8-2.2-3-3 -0.5-0.3 0.3-0.7 0.1-1.1 -0.5-1.1-0.1-2.2-0.2-3.4 0-0.6 0.8-0.9 1.2-1.4 0.2-0.2 0.3-0.4 0.5-0.6v0.9h18.5v-1H26.6c0.5-0.4 1-0.8 1.4-1.4 0.2-0.3 1.2-0.1 1.1-0.4 -0.3-1.4 0.3-0.7 0.8-0.4 0 0 0.1 0 0.1 0 2.7-1.4 5.5 0.2 8.2-0.5 1.4-0.4 2.7 0.3 4 0.2 0.5 0 0.6 0.7 1.1 1 1.6 1 3 2.4 4.1 4 0.5 0.9 0.1 1.3 0.1 1.9 0.1 0.2-0.2 0.6 0.2 0.7S48.1 65.5 48 65.8L48 65.8zM45.6 70.2c-0.4 0.1-0.4-0.3-0.4-0.6h0.6C45.8 69.8 46 70.1 45.6 70.2L45.6 70.2zM45.6 72.4c-0.2 0-0.3-0.1-0.4-0.3s0.2-0.2 0.3-0.3 0.3 0.1 0.3 0.3S45.8 72.3 45.6 72.4L45.6 72.4zM45.9 74.2c0 0.2 0 0.3-0.2 0.3 -0.2 0-0.3 0-0.4-0.2 0 0 0-0.1 0-0.1 0-0.2 0.1-0.3 0.3-0.3S45.9 73.9 45.9 74.2L45.9 74.2zM46.5 72.9c0.2 0 0.3 0.1 0.4 0.3s-0.1 0.3-0.3 0.3 -0.3-0.1-0.3-0.3S46.4 72.8 46.5 72.9L46.5 72.9zM46.4 70.9c0-0.2 0.2-0.2 0.4-0.1 0.2 0.1 0.2 0.2 0.2 0.4s-0.2 0.2-0.4 0.2l0 0C46.3 71.2 46.3 71 46.4 70.9L46.4 70.9zM46.4 69.2c0-0.2 0-0.4 0-0.6 0 0 0.1 0 0.2 0 0.3 0.2 0.5 0.3 0.3 0.7L46.4 69.2zM44.4 75.1c0.2-0.1 0.3 0 0.4 0.2 0 0 0 0.1 0 0.1 0 0.1 0 0.3-0.2 0.3 0 0-0.1 0-0.1 0 -0.2 0-0.3 0-0.3-0.2S44.3 75 44.4 75.1L44.4 75.1zM44.3 73.1c0-0.2 0.2-0.2 0.4-0.1 0.2 0.1 0.2 0.2 0.2 0.4 -0.1 0.1-0.2 0.2-0.4 0.2C44.1 73.4 44.2 73.1 44.3 73.1L44.3 73.1zM44.5 71.4c-0.2 0-0.3 0-0.3-0.2s0-0.4 0.3-0.4c0.2 0 0.3 0.1 0.3 0.3C44.8 71.2 44.7 71.3 44.5 71.4L44.5 71.4zM43.5 74.6c-0.2 0-0.3-0.1-0.3-0.4s0.2-0.2 0.3-0.2 0.3 0.1 0.3 0.3S43.7 74.5 43.5 74.6L43.5 74.6zM43.7 76.6c0 0.1-0.2 0.2-0.3 0.2 0 0 0 0-0.1 0 -0.2 0-0.2-0.2-0.2-0.3s0.3-0.2 0.4-0.2 0.1 0.1 0.1 0.3L43.7 76.6zM43.5 71.9c0.2 0 0.3 0.1 0.3 0.3s0 0.3-0.2 0.3c-0.2 0-0.3-0.1-0.3-0.2 -0.1-0.4 0.1-0.5 0.3-0.5L43.5 71.9zM42.3 75c0.2 0 0.3 0.1 0.3 0.3 0 0.1-0.1 0.3-0.2 0.3 0 0 0 0 0 0 -0.2 0-0.3 0-0.3-0.2S42 75 42.3 75zM42.1 73c0-0.2 0.2-0.2 0.4-0.1 0.2 0.1 0.2 0.2 0.2 0.4 -0.1 0.1-0.2 0.2-0.4 0.2C41.9 73.4 42 73.1 42.1 73zM42.3 71.3c-0.2 0-0.3-0.1-0.3-0.3s0-0.3 0.2-0.3 0.4 0.1 0.4 0.4S42.4 71.2 42.3 71.3L42.3 71.3zM41.3 74.5c-0.2 0-0.3-0.1-0.4-0.2 0 0 0-0.1 0-0.1 0-0.2 0.1-0.3 0.3-0.3s0.3 0 0.3 0.2S41.5 74.5 41.3 74.5L41.3 74.5zM41.5 76.3c0 0.1-0.1 0.3-0.2 0.4s-0.4 0-0.4-0.3c0-0.1 0-0.2 0.2-0.3 0 0 0.1 0 0.1 0C41.4 76.1 41.5 76.1 41.5 76.3L41.5 76.3zM41.3 72.4c-0.2 0-0.3-0.1-0.3-0.3 0 0 0-0.1 0-0.1 0-0.2 0.1-0.3 0.3-0.3s0.3 0 0.3 0.2S41.5 72.3 41.3 72.4L41.3 72.4zM41.2 69.6c0.2 0 0.3 0.1 0.3 0.3s0 0.3-0.2 0.3c-0.1 0-0.2-0.1-0.3-0.2C40.9 69.7 41.1 69.6 41.2 69.6L41.2 69.6zM40.1 75.6c-0.2 0-0.3-0.1-0.3-0.3s0-0.3 0.2-0.3 0.4 0.1 0.4 0.2S40.4 75.6 40.1 75.6L40.1 75.6zM40.1 77.8c-0.2 0-0.3-0.1-0.3-0.3s0-0.3 0.2-0.3 0.3 0.1 0.4 0.3S40.3 77.7 40.1 77.8L40.1 77.8zM39.9 70.8c0-0.2 0.2-0.2 0.4-0.1 0.2 0.1 0.2 0.2 0.2 0.4 -0.1 0.1-0.2 0.2-0.4 0.2C39.8 71.2 39.9 71 39.9 70.8L39.9 70.8zM39.9 68.8c0-0.1 0-0.3 0.2-0.3s0.3 0.1 0.4 0.3 -0.1 0.3-0.3 0.3S39.8 69 39.9 68.8L39.9 68.8zM40.2 73.5c-0.2 0-0.3-0.1-0.3-0.3s0-0.3 0.2-0.3 0.4 0 0.4 0.2S40.4 73.4 40.2 73.5L40.2 73.5zM39.1 71.8c0.2 0 0.3 0 0.3 0.2s0 0.3-0.2 0.4c-0.2 0-0.3-0.1-0.4-0.2 0 0 0-0.1 0-0.1C38.8 71.8 38.9 71.8 39.1 71.8L39.1 71.8zM38.8 69.9c0-0.2 0-0.3 0.2-0.3s0.4 0 0.3 0.2 -0.1 0.3-0.2 0.4S38.8 70.1 38.8 69.9zM39.1 74.5c-0.2 0-0.3-0.1-0.4-0.3s0.2-0.2 0.3-0.3 0.3 0.1 0.3 0.2S39.4 74.5 39.1 74.5zM39.4 76.3c0 0.2 0 0.3-0.2 0.3 -0.2 0-0.3-0.1-0.4-0.3 0 0 0-0.1 0-0.1 0-0.2 0.2-0.2 0.3-0.3C39.2 76 39.3 76.1 39.4 76.3 39.4 76.3 39.4 76.3 39.4 76.3zM37.9 77.2c0.2 0 0.3 0 0.4 0.2s-0.1 0.4-0.3 0.4 -0.3-0.1-0.3-0.3S37.7 77.2 37.9 77.2zM37.7 75.3c0-0.1 0-0.3 0.2-0.3s0.3 0.1 0.4 0.3 -0.1 0.3-0.3 0.3S37.7 75.5 37.7 75.3zM38 73.4c-0.3 0-0.3-0.2-0.3-0.4s0.1-0.3 0.3-0.2c0.1 0 0.2 0.1 0.3 0.2C38.3 73.4 38.1 73.4 38 73.4zM37 74.5c-0.2 0-0.3-0.1-0.3-0.3 0 0 0-0.1 0-0.1 0-0.2 0.2-0.2 0.3-0.2s0.2 0.2 0.2 0.3S37.1 74.5 37 74.5zM37.3 76.3c0 0.2 0 0.3-0.2 0.4s-0.4-0.1-0.4-0.3 0.1-0.3 0.3-0.3S37.2 76.1 37.3 76.3L37.3 76.3zM36.6 72c0-0.2 0.1-0.3 0.3-0.3s0.3 0 0.3 0.2 0 0.3-0.2 0.3C36.9 72.3 36.7 72.2 36.6 72 36.6 72.1 36.6 72 36.6 72zM37 70.2c-0.2 0-0.3-0.1-0.3-0.3 0 0 0-0.1 0-0.1 0-0.2 0.2-0.2 0.3-0.2s0.2 0.2 0.2 0.3S37.1 70.2 37 70.2zM36.7 67.7c0-0.2 0.1-0.3 0.3-0.3s0.3 0 0.3 0.2 0 0.3-0.2 0.4S36.7 67.9 36.7 67.7L36.7 67.7zM35.8 77.2c0.2 0 0.3 0.1 0.3 0.4s-0.2 0.2-0.3 0.3 -0.3-0.1-0.3-0.3S35.5 77.1 35.8 77.2L35.8 77.2zM35.8 75c0.2 0 0.3 0.1 0.3 0.3 0 0.2-0.1 0.3-0.3 0.3s-0.3 0-0.3-0.2S35.5 75 35.8 75L35.8 75zM35.8 73.4c-0.3 0-0.3-0.2-0.3-0.4s0.2-0.3 0.3-0.2c0.1 0 0.2 0.1 0.3 0.2C36.1 73.4 36 73.4 35.8 73.4L35.8 73.4zM34.8 74.5c-0.2 0-0.4-0.1-0.4-0.3s0.1-0.3 0.3-0.3 0.3 0 0.3 0.2S35 74.5 34.8 74.5L34.8 74.5zM35 76.4c0 0.2-0.1 0.3-0.3 0.3 -0.2 0-0.3-0.2-0.3-0.3 0 0 0-0.1 0-0.1 0-0.2 0.2-0.2 0.4-0.2S35.1 76.3 35 76.4L35 76.4zM34.8 69.6c0.2 0 0.3 0.1 0.3 0.3s0 0.3-0.2 0.3c-0.2 0-0.3-0.1-0.3-0.2C34.4 69.7 34.6 69.6 34.8 69.6L34.8 69.6zM34.5 67.7c0-0.2 0.2-0.2 0.3-0.2s0.3 0.1 0.2 0.3S35 68 34.8 68 34.5 67.9 34.5 67.7L34.5 67.7zM35 72.2c0 0.1-0.2 0.2-0.3 0.2 0 0 0 0-0.1 0 -0.2 0-0.2-0.2-0.2-0.3s0.3-0.2 0.4-0.2S35.1 72 35 72.2L35 72.2zM33.4 71c0-0.2 0-0.3 0.3-0.3S34 70.8 34 71s-0.1 0.3-0.3 0.3S33.4 71.1 33.4 71zM33.4 68.9c0-0.1 0-0.3 0.2-0.3s0.3 0.1 0.4 0.3 -0.1 0.3-0.3 0.3S33.4 69 33.4 68.9L33.4 68.9zM33.7 72.9c0.2 0 0.3 0.1 0.3 0.3s0 0.3-0.2 0.3 -0.3 0-0.3-0.2S33.3 72.8 33.7 72.9L33.7 72.9zM33.4 75.2c0-0.2 0.2-0.2 0.4-0.1 0.2 0.1 0.2 0.2 0.2 0.4 -0.1 0.1-0.2 0.2-0.4 0.2C33.3 75.5 33.4 75.3 33.4 75.2L33.4 75.2zM33.6 77.2c0.2 0 0.3 0 0.4 0.2s-0.1 0.4-0.3 0.4 -0.3-0.1-0.3-0.3S33.4 77.2 33.6 77.2L33.6 77.2zM36 68.6c0.2 0.1 0.2 0.2 0.2 0.4 -0.1 0.1-0.2 0.2-0.4 0.2 -0.3-0.1-0.2-0.3-0.2-0.5S35.8 68.5 36 68.6L36 68.6zM35.6 70.8c0-0.2 0.2-0.2 0.4-0.1 0.2 0.1 0.2 0.2 0.2 0.4 -0.1 0.1-0.2 0.2-0.4 0.2C35.5 71.2 35.5 71 35.6 70.8L35.6 70.8zM37.8 70.8c0-0.2 0.2-0.2 0.4-0.1 0.2 0.1 0.2 0.2 0.2 0.4 -0.1 0.1-0.2 0.2-0.4 0.2C37.6 71.2 37.7 71 37.8 70.8L37.8 70.8zM37.8 68.9c0-0.2 0-0.4 0.3-0.4 0.2 0 0.3 0.1 0.3 0.3 0 0.1-0.1 0.3-0.2 0.3 0 0 0 0-0.1 0C37.9 69.1 37.7 69.1 37.8 68.9L37.8 68.9zM38.3 66.9c-0.1 0.1-0.3 0.1-0.4 0H38.3L38.3 66.9zM32.7 73.9c0.2 0 0.2 0.2 0.2 0.3s-0.1 0.3-0.3 0.3c-0.2 0-0.3-0.1-0.3-0.3 0 0 0-0.1 0-0.1C32.3 73.9 32.5 73.9 32.7 73.9L32.7 73.9zM32.4 71.9c0-0.2 0.2-0.2 0.3-0.2S33 71.8 33 72s-0.1 0.3-0.3 0.3S32.3 72.2 32.4 71.9L32.4 71.9zM32.7 70.1c-0.2 0-0.3-0.1-0.4-0.3s0.2-0.2 0.3-0.3 0.3 0 0.3 0.2S32.9 70.2 32.7 70.1L32.7 70.1zM32.7 76c0.2 0 0.3 0.1 0.3 0.3s0 0.3-0.3 0.3 -0.3-0.1-0.3-0.4S32.5 76.1 32.7 76L32.7 76zM31.6 75.5c-0.3 0-0.3-0.2-0.3-0.4s0.1-0.3 0.3-0.2c0.1 0 0.2 0.1 0.3 0.2C31.8 75.6 31.6 75.6 31.6 75.5L31.6 75.5zM31.6 77.7c-0.2 0-0.3-0.1-0.3-0.3s0-0.3 0.2-0.3 0.3 0.1 0.4 0.3 -0.2 0.4-0.4 0.4L31.6 77.7zM31.4 73c0-0.2 0.1-0.3 0.3-0.2 0.2 0 0.3 0.1 0.3 0.3 0 0 0 0 0 0 0 0.3-0.2 0.3-0.4 0.3s-0.3-0.1-0.3-0.3L31.4 73zM31.6 70.6c0.2 0 0.3 0.1 0.3 0.3 0 0.2-0.1 0.3-0.3 0.3s-0.3 0-0.3-0.2 -0.1-0.4 0.1-0.3L31.6 70.6zM30.6 71.7c0.2 0 0.3 0.1 0.3 0.3s0 0.3-0.2 0.3 -0.4-0.1-0.4-0.3 0-0.2 0.2-0.2L30.6 71.7zM30.3 69.8c0-0.1 0-0.3 0.2-0.3 0 0 0.1 0 0.1 0 0.2 0 0.3 0 0.3 0.2s0 0.3-0.2 0.4c-0.1 0.2-0.2 0.2-0.4 0.2 -0.2-0.1-0.2-0.2-0.2-0.4L30.3 69.8zM30.9 74.1c0 0.1-0.1 0.3-0.2 0.4s-0.4 0-0.4-0.3c0-0.1 0-0.2 0.2-0.3 0 0 0.1 0 0.1 0 0 0 0.2 0 0.2 0.3L30.9 74.1zM30.6 76.1c0.2 0 0.3 0 0.3 0.2s0 0.4-0.2 0.4c-0.2 0-0.3 0-0.4-0.2 0 0 0-0.1 0-0.1 -0.2-0.2 0-0.2 0.1-0.2L30.6 76.1zM29.4 73.4c-0.3-0.1-0.2-0.3-0.1-0.5s0.2-0.2 0.4-0.1c0.2 0.1 0.2 0.2 0.2 0.4 0 0.2-0.2 0.3-0.3 0.3 -0.1 0-0.1 0-0.2-0.1L29.4 73.4zM29.8 75.4c-0.1 0.1-0.2 0.2-0.4 0.2 -0.3-0.1-0.2-0.3-0.1-0.5s0.2-0.2 0.4-0.1c0.1 0.1 0.1 0.3 0 0.4L29.8 75.4zM29.5 71.3c-0.2 0-0.3 0-0.3-0.2s0-0.4 0.3-0.4c0.2 0 0.3 0.1 0.3 0.3 0.1 0.1 0.1 0.3-0.1 0.4 -0.1 0.1-0.3 0.1-0.4-0.1L29.5 71.3zM28.5 74.5c-0.2 0-0.3-0.1-0.3-0.3 0 0 0-0.1 0-0.1 0-0.2 0.2-0.2 0.3-0.2s0.2 0.2 0.3 0.3 -0.2 0.4-0.4 0.3L28.5 74.5zM28.7 76.5c0 0.1-0.2 0.2-0.3 0.2 0 0 0 0-0.1 0 -0.2 0-0.2-0.2-0.2-0.3s0.3-0.2 0.4-0.2 0 0.2 0 0.4L28.7 76.5zM28 72c0-0.2 0.2-0.2 0.3-0.3s0.3 0.1 0.3 0.3 0 0.3-0.2 0.3S28 72.2 28 72zM27.2 73.4c-0.2 0-0.3 0-0.3-0.3s0-0.4 0.3-0.3c0.2 0 0.3 0.2 0.3 0.3C27.5 73.4 27.4 73.4 27.2 73.4L27.2 73.4zM27.5 75.3c0 0.3-0.1 0.3-0.4 0.3s-0.2-0.2-0.2-0.3 0-0.3 0.3-0.3S27.5 75.1 27.5 75.3L27.5 75.3zM27.2 71.3c-0.2 0-0.3 0-0.3-0.2s0-0.4 0.3-0.4c0.2 0 0.3 0.1 0.3 0.3C27.5 71.1 27.5 71.2 27.2 71.3 27.3 71.3 27.3 71.3 27.2 71.3L27.2 71.3zM26.2 72.3c-0.2 0-0.3-0.1-0.3-0.3 0 0 0-0.1 0-0.1 0-0.2 0.2-0.2 0.3-0.2s0.2 0.2 0.3 0.3S26.3 72.4 26.2 72.3L26.2 72.3zM26.4 74.2c0 0.2-0.1 0.3-0.3 0.3s-0.3-0.2-0.3-0.4 0.2-0.2 0.4-0.2S26.4 74.1 26.4 74.2L26.4 74.2zM25.9 69.9c0-0.1 0-0.3 0.1-0.3 0 0 0.1 0 0.1 0 0.2 0 0.3 0 0.3 0.2s-0.1 0.3-0.2 0.4S25.9 70.1 25.9 69.9L25.9 69.9zM23.7 74.1C23.7 74.1 23.7 74.1 23.7 74.1c0-0.2 0.2-0.2 0.4-0.2s0.2 0.2 0.2 0.3c0 0.1-0.1 0.2-0.1 0.2L23.7 74.1zM22 61c0.2 0 0.2 0.2 0.1 0.4 0 0.1-0.2 0.2-0.3 0.2 0 0 0 0-0.1 0 -0.2 0-0.2-0.2-0.2-0.3S21.8 60.9 22 61zM21.6 59c0-0.2 0.2-0.2 0.4-0.2s0.2 0.2 0.2 0.3c0 0.1-0.1 0.3-0.3 0.3 0 0 0 0 0 0 -0.2 0-0.3-0.1-0.3-0.3C21.5 59.1 21.5 59 21.6 59L21.6 59zM21.9 63.1c0.2 0 0.3 0.1 0.3 0.3s0 0.3-0.3 0.3 -0.3-0.1-0.3-0.4S21.7 63.2 21.9 63.1L21.9 63.1zM21.9 67.5c0.3 0 0.3 0.1 0.3 0.3s-0.1 0.3-0.3 0.3 -0.3-0.2-0.3-0.4S21.7 67.5 21.9 67.5L21.9 67.5zM21.6 65.5c0-0.2 0.2-0.2 0.4-0.2s0.2 0.2 0.2 0.3c0 0.1-0.1 0.3-0.3 0.3 0 0 0 0 0 0 -0.2 0-0.3-0.1-0.4-0.3C21.5 65.6 21.5 65.5 21.6 65.5L21.6 65.5zM21.9 69.6c0.2 0 0.3 0 0.3 0.2s0 0.3-0.2 0.3 -0.4-0.1-0.4-0.3S21.7 69.6 21.9 69.6L21.9 69.6zM22 71.8c0.2 0 0.2 0.2 0.1 0.3s-0.2 0.3-0.4 0.2 -0.2-0.2-0.2-0.3S21.8 71.7 22 71.8zM20.6 66.4c0.2-0.1 0.3 0 0.4 0.2 0 0 0 0.1 0 0.1 0 0.1 0 0.3-0.2 0.3 0 0-0.1 0-0.1 0 -0.2 0-0.3 0-0.3-0.2S20.5 66.4 20.6 66.4L20.6 66.4zM20.5 64.4c0-0.2 0.2-0.2 0.4-0.1 0.2 0.1 0.2 0.2 0.2 0.4 -0.1 0.1-0.2 0.2-0.4 0.2C20.3 64.7 20.4 64.5 20.5 64.4L20.5 64.4zM20.7 62.7c-0.2 0-0.3-0.1-0.3-0.3s0-0.3 0.2-0.3 0.3 0.1 0.3 0.3S20.9 62.6 20.7 62.7L20.7 62.7zM19.7 68.1c-0.2 0-0.3-0.1-0.3-0.4s0.2-0.2 0.3-0.2 0.3 0.1 0.3 0.3S19.9 68 19.7 68.1L19.7 68.1zM20 69.9c0 0.2 0 0.3-0.2 0.3s-0.4-0.1-0.4-0.3 0.1-0.3 0.3-0.3S20 69.6 20 69.9L20 69.9zM19.7 65.3c0.2 0 0.3 0.1 0.3 0.3s0 0.3-0.2 0.3c-0.2 0-0.3-0.1-0.3-0.2C19.3 65.3 19.5 65.3 19.7 65.3L19.7 65.3zM19.7 63.7c-0.2 0-0.3-0.1-0.3-0.4s0.2-0.2 0.3-0.2 0.3 0.1 0.3 0.3S19.9 63.7 19.7 63.7L19.7 63.7zM19.4 61.2c0-0.2 0.2-0.2 0.4-0.2s0.2 0.2 0.2 0.3c0 0.1-0.1 0.3-0.3 0.3 0 0 0 0 0 0 -0.2 0-0.3-0.1-0.3-0.3C19.3 61.2 19.3 61.2 19.4 61.2L19.4 61.2zM19.7 59.4c-0.2 0-0.3-0.1-0.3-0.4s0.2-0.2 0.3-0.2 0.3 0.1 0.3 0.3S19.9 59.4 19.7 59.4L19.7 59.4zM18.5 64.8c-0.3 0-0.3-0.2-0.3-0.4s0.1-0.3 0.3-0.2c0.2 0 0.3 0.2 0.3 0.3C18.9 64.8 18.7 64.8 18.5 64.8L18.5 64.8zM18.5 67c-0.2 0-0.3-0.1-0.3-0.3s0-0.3 0.2-0.3 0.3 0.1 0.3 0.3S18.7 66.9 18.5 67L18.5 67zM18.5 59.9c0.2 0 0.3 0.1 0.3 0.3s-0.1 0.3-0.3 0.3 -0.3-0.1-0.3-0.3S18.3 59.9 18.5 59.9L18.5 59.9zM18.3 58.1c0-0.1 0.1-0.3 0.2-0.4 0.2-0.1 0.3 0 0.4 0.2 0 0 0 0.1 0 0.1 0 0.1-0.1 0.3-0.2 0.3 0 0 0 0-0.1 0C18.4 58.3 18.3 58.3 18.3 58.1L18.3 58.1zM18.9 62.4c0 0.1-0.1 0.3-0.2 0.3 0 0 0 0-0.1 0 -0.2 0-0.3 0-0.3-0.2s0.1-0.3 0.2-0.4C18.6 62 18.8 62.1 18.9 62.4 18.8 62.3 18.8 62.3 18.9 62.4L18.9 62.4zM17.6 63.2c0.2 0 0.2 0.2 0.2 0.3s-0.1 0.3-0.3 0.3c-0.2 0-0.3-0.2-0.3-0.3 0 0 0-0.1 0-0.1C17.2 63.1 17.4 63.1 17.6 63.2L17.6 63.2zM17.2 61.3c0-0.1 0-0.2 0.2-0.3 0 0 0.1 0 0.1 0 0.2 0 0.3 0 0.3 0.2s-0.1 0.3-0.2 0.4S17.2 61.5 17.2 61.3L17.2 61.3zM17.5 59.4c-0.2 0-0.3-0.2-0.3-0.4s0.2-0.2 0.4-0.2 0.3 0.1 0.2 0.3S17.7 59.4 17.5 59.4L17.5 59.4zM17.5 57.3c-0.2 0-0.4-0.1-0.4-0.3s0.2-0.2 0.3-0.3c0.1 0 0.2 0 0.3 0.2 0 0 0 0.1 0 0.1C17.8 57 17.8 57.2 17.5 57.3L17.5 57.3zM17.5 65.3c0.2 0 0.3 0.1 0.3 0.3s0 0.3-0.2 0.3c-0.2 0-0.3-0.1-0.3-0.2C17.1 65.3 17.3 65.3 17.5 65.3L17.5 65.3zM18.3 68.8c0-0.2 0-0.3 0.2-0.3s0.3 0.1 0.3 0.3 -0.1 0.3-0.3 0.3L18.3 68.8zM20.4 71c0-0.2 0-0.3 0.2-0.3S21 70.8 21 71s-0.1 0.3-0.4 0.3S20.4 71.1 20.4 71zM20.8 69.2c-0.2 0-0.3 0-0.3-0.2s0-0.4 0.3-0.4c0.2 0 0.3 0.1 0.3 0.3C21 69 21 69.1 20.8 69.2L20.8 69.2zM20.8 60.5c-0.2 0-0.3-0.1-0.3-0.3s0-0.3 0.2-0.3 0.4 0.1 0.4 0.4S20.8 60.4 20.8 60.5L20.8 60.5zM25 58.3c-0.2 0-0.3 0-0.3-0.3s0-0.4 0.3-0.3c0.2 0 0.3 0.2 0.3 0.3C25.3 58.2 25.2 58.3 25 58.3zM25.3 60.1c0 0.1 0 0.3-0.2 0.3 0 0 0 0-0.1 0 -0.2 0-0.3 0-0.3-0.2s-0.1-0.4 0.2-0.4S25.3 59.9 25.3 60.1L25.3 60.1zM24.7 55.8c0-0.2 0.1-0.3 0.3-0.2 0.2 0 0.3 0.2 0.3 0.3 0 0.2-0.2 0.3-0.3 0.3S24.7 56 24.7 55.8L24.7 55.8zM24 67.4c0.2 0 0.2 0.2 0.2 0.3 0 0.1-0.1 0.2-0.2 0.2 -0.2 0-0.3-0.1-0.3-0.3C23.6 67.4 23.9 67.4 24 67.4L24 67.4zM23.6 65.4c0-0.2 0.2-0.2 0.3-0.2 0.3 0 0.3 0.1 0.3 0.3s-0.1 0.3-0.3 0.3S23.7 65.7 23.6 65.4L23.6 65.4zM24 69.6c0.2 0 0.2 0.2 0.2 0.3 0 0.1-0.1 0.3-0.3 0.3 0 0 0 0 0 0 -0.2 0-0.3-0.1-0.3-0.3C23.6 69.6 23.9 69.6 24 69.6L24 69.6zM24 71.8c0.2 0 0.3 0.1 0.3 0.3s0 0.3-0.2 0.3c-0.2 0-0.3-0.1-0.3-0.2C23.6 71.8 23.8 71.8 24 71.8zM24 63.7c-0.2 0-0.4-0.1-0.4-0.3s0.2-0.2 0.3-0.3 0.3 0 0.3 0.2S24.3 63.7 24 63.7zM24 61c0.2 0 0.3 0.1 0.3 0.3s0 0.3-0.2 0.3c-0.2 0-0.3-0.1-0.3-0.2C23.6 61 23.8 61 24 61zM24 59.4c-0.2 0-0.4-0.1-0.4-0.3s0.2-0.2 0.3-0.3 0.3 0 0.3 0.2S24.3 59.4 24 59.4zM24 57.2c-0.2 0-0.4-0.1-0.4-0.3s0.2-0.2 0.3-0.3 0.3 0.1 0.3 0.3S24.2 57.2 24 57.2zM22.9 58.3c-0.2 0-0.3-0.1-0.3-0.3s0-0.3 0.2-0.3 0.4 0.1 0.4 0.4S23 58.3 22.9 58.3L22.9 58.3zM23.1 60.2c0 0.1-0.1 0.3-0.2 0.3 0 0 0 0-0.1 0 -0.2 0-0.3 0-0.3-0.2s0.1-0.3 0.2-0.4c0.1-0.1 0.3 0 0.4 0.1C23.2 60.1 23.2 60.1 23.1 60.2L23.1 60.2zM22.6 62.3c0-0.2 0.1-0.3 0.3-0.2 0.2 0 0.3 0.1 0.3 0.3 0 0 0 0 0 0 0 0.3-0.2 0.3-0.4 0.3S22.6 62.4 22.6 62.3L22.6 62.3zM22.9 67c-0.2 0-0.3 0-0.3-0.2s0-0.4 0.3-0.4c0.2 0 0.3 0.1 0.3 0.3C23.2 66.8 23.1 66.9 22.9 67zM22.8 69.2c-0.2 0-0.3-0.1-0.3-0.3s0-0.3 0.2-0.3 0.3 0.1 0.3 0.3S23.1 69.1 22.8 69.2L22.8 69.2zM22.9 64.8c-0.2 0-0.3 0-0.3-0.2s0-0.4 0.3-0.4c0.2 0 0.3 0.1 0.3 0.3C23.2 64.7 23.1 64.8 22.9 64.8L22.9 64.8zM22.9 70.7c0.2 0 0.3 0.2 0.3 0.3 0 0.2-0.1 0.3-0.3 0.3s-0.3 0-0.3-0.3S22.6 70.6 22.9 70.7L22.9 70.7zM24.8 73c0-0.2 0.2-0.2 0.4-0.1 0.2 0.1 0.2 0.2 0.2 0.4 -0.1 0.1-0.2 0.2-0.4 0.2C24.6 73.4 24.7 73.1 24.8 73zM25.1 71.3c-0.2 0-0.3 0-0.3-0.2s0.1-0.3 0.2-0.4c0.2-0.1 0.3 0 0.4 0.2 0 0 0 0.1 0 0.1C25.3 71.1 25.2 71.3 25.1 71.3 25.1 71.3 25.1 71.3 25.1 71.3L25.1 71.3zM24.8 68.7c0-0.2 0.2-0.2 0.4-0.1 0.2 0.1 0.2 0.2 0.2 0.4 -0.1 0.1-0.2 0.2-0.4 0.2C24.6 69.1 24.7 68.8 24.8 68.7L24.8 68.7zM26.1 58.8c0.2 0 0.3 0 0.3 0.2s0 0.3-0.2 0.3 -0.4-0.1-0.4-0.3S26 58.8 26.1 58.8zM25.8 56.8c0-0.2 0.2-0.2 0.4-0.2s0.2 0.2 0.2 0.3 -0.1 0.3-0.3 0.3C25.9 57.2 25.8 57.1 25.8 56.8 25.8 56.9 25.8 56.8 25.8 56.8L25.8 56.8zM45.7 57.2c-0.2 0-0.3-0.1-0.4-0.2 0 0 0-0.1 0-0.1 0-0.2 0.1-0.3 0.3-0.3s0.3 0 0.3 0.2S45.8 57.2 45.7 57.2L45.7 57.2zM45.9 59c0 0.2 0 0.3-0.3 0.3s-0.3-0.1-0.3-0.4 0.2-0.2 0.3-0.2S45.9 58.9 45.9 59L45.9 59zM44.2 57.9c0-0.2 0.1-0.3 0.3-0.2 0.2 0 0.3 0.2 0.3 0.3 0 0.2-0.2 0.3-0.3 0.3S44.2 58.1 44.2 57.9zM44.2 55.9c0-0.1 0-0.3 0.2-0.3s0.3 0 0.4 0.2 -0.1 0.4-0.3 0.4S44.2 56.1 44.2 55.9L44.2 55.9zM43.5 56.7c0.2 0 0.2 0.2 0.2 0.3s-0.1 0.3-0.3 0.3c-0.2 0-0.3-0.1-0.3-0.3 0 0 0-0.1 0-0.1C43.1 56.6 43.3 56.7 43.5 56.7L43.5 56.7zM43.1 54.8c0-0.2 0.1-0.3 0.3-0.3s0.3 0 0.3 0.2 0 0.3-0.2 0.3c-0.2 0.1-0.3 0-0.4-0.2C43.1 54.9 43.1 54.8 43.1 54.8L43.1 54.8zM42.6 55.9c0 0.3-0.2 0.3-0.4 0.3S42 56 42 55.8s0.1-0.3 0.3-0.2C42.5 55.5 42.6 55.7 42.6 55.9 42.6 55.8 42.6 55.8 42.6 55.9L42.6 55.9zM41.3 55.1c-0.2 0-0.3-0.1-0.3-0.2 -0.1-0.3 0.1-0.3 0.3-0.3s0.3 0.1 0.3 0.3S41.5 55.1 41.3 55.1L41.3 55.1zM41.5 57c0 0.1-0.1 0.3-0.3 0.3 0 0 0 0 0 0 -0.2 0-0.3-0.1-0.3-0.3 0-0.3 0.2-0.3 0.4-0.3S41.5 56.8 41.5 57L41.5 57zM40.5 55.8c0 0.2 0 0.3-0.2 0.3s-0.3 0-0.3-0.2 -0.1-0.4 0.2-0.4S40.4 55.6 40.5 55.8L40.5 55.8zM39.4 54.8c0 0.2 0 0.3-0.2 0.3 -0.1 0-0.2 0-0.3-0.1 0.2-0.1 0.3-0.2 0.5-0.3C39.4 54.7 39.4 54.7 39.4 54.8L39.4 54.8zM38.3 55.9c0 0.2-0.2 0.2-0.3 0.3s-0.3-0.1-0.3-0.3 0-0.3 0.2-0.3S38.3 55.7 38.3 55.9zM35.1 56.9c0 0.2-0.1 0.3-0.3 0.3 -0.2 0-0.3-0.1-0.3-0.3 0 0 0-0.1 0-0.1 0-0.2 0.2-0.2 0.3-0.2S35 56.8 35.1 56.9L35.1 56.9zM34 55.8c0 0.1 0 0.3-0.2 0.3 0 0 0 0-0.1 0 -0.2 0-0.3 0-0.3-0.2s-0.1-0.4 0.2-0.4S34 55.6 34 55.8zM32.4 54.6c0.2 0.1 0.3 0.2 0.5 0.3 0 0.1-0.1 0.1-0.2 0.1 -0.2 0-0.3-0.1-0.4-0.3C32.3 54.7 32.3 54.6 32.4 54.6L32.4 54.6zM37.3 56.9c0 0.2 0 0.3-0.2 0.3s-0.4-0.1-0.4-0.3 0.1-0.3 0.3-0.3S37.2 56.7 37.3 56.9L37.3 56.9zM31.9 55.9c0 0.2-0.2 0.2-0.3 0.3s-0.3-0.1-0.3-0.3 0-0.3 0.2-0.3S31.8 55.7 31.9 55.9L31.9 55.9zM30.6 56.6c0.2 0 0.2 0.2 0.1 0.3 -0.1 0.3-0.2 0.3-0.4 0.2s-0.2-0.2-0.2-0.3S30.4 56.6 30.6 56.6L30.6 56.6zM30.2 54.6c0-0.2 0.2-0.2 0.4-0.2s0.2 0.2 0.2 0.3S30.6 55 30.5 55c-0.2 0-0.3-0.1-0.3-0.3C30.2 54.7 30.2 54.7 30.2 54.6L30.2 54.6zM29.4 56.1c-0.2 0-0.3-0.1-0.3-0.3s0-0.3 0.1-0.3 0.4 0 0.4 0.2S29.6 56.1 29.4 56.1L29.4 56.1zM28.4 55c-0.2 0-0.3-0.2-0.3-0.4s0.2-0.2 0.4-0.2 0.3 0.1 0.2 0.3S28.5 55.1 28.4 55L28.4 55zM28.6 56.9c0 0.2-0.1 0.3-0.3 0.3S28 57 28.1 56.8s0.2-0.2 0.4-0.2S28.6 56.8 28.6 56.9L28.6 56.9zM27.3 56.1c-0.2 0-0.3 0-0.3-0.2s0-0.4 0.3-0.4c0.2 0 0.3 0.1 0.3 0.3C27.5 56 27.4 56.1 27.3 56.1L27.3 56.1zM27.5 58c0 0.2-0.1 0.3-0.3 0.3s-0.3 0-0.3-0.2 0-0.4 0.3-0.4C27.3 57.7 27.5 57.8 27.5 58zM47.8 57.2c-0.2 0-0.3-0.1-0.3-0.3 0 0 0-0.1 0-0.1 0-0.2 0.2-0.2 0.3-0.2s0.2 0.2 0.2 0.3S47.9 57.2 47.8 57.2zM48 59.1c0 0.2-0.1 0.3-0.3 0.3s-0.3-0.2-0.3-0.4 0.2-0.2 0.3-0.2S48 58.9 48 59.1zM46.5 57.7c0.2-0.1 0.3 0 0.4 0.2 0 0 0 0.1 0 0.1 0 0.1 0 0.3-0.2 0.3 0 0-0.1 0-0.1 0 -0.2 0-0.3 0-0.3-0.2S46.4 57.8 46.5 57.7L46.5 57.7zM46.3 55.9c0-0.1 0-0.3 0.2-0.3s0.3 0.1 0.3 0.3 -0.1 0.3-0.3 0.3S46.3 56 46.3 55.9L46.3 55.9zM46.7 59.9c0.2 0 0.3 0.2 0.3 0.3 0 0.2-0.1 0.3-0.3 0.3s-0.3 0-0.3-0.3S46.4 59.8 46.7 59.9L46.7 59.9zM48 61.3c-0.1 0.3-0.2 0.3-0.4 0.2s-0.2-0.2-0.2-0.3 0.3-0.2 0.4-0.2S48 61.2 48 61.3zM48.8 64.2c0.2 0 0.3 0.1 0.3 0.3 0 0.1-0.1 0.3-0.2 0.3 0 0 0 0 0 0 -0.2 0-0.3 0-0.3-0.2S48.5 64.2 48.8 64.2L48.8 64.2zM48.5 62.4c0-0.1 0.1-0.3 0.2-0.4 0.2-0.1 0.3 0 0.4 0.2 0 0 0 0.1 0 0.1 0 0.1 0 0.3-0.2 0.3 0 0-0.1 0-0.1 0C48.7 62.6 48.5 62.6 48.5 62.4L48.5 62.4zM48.5 68.9c0-0.1 0.1-0.3 0.2-0.4 0.2-0.1 0.3 0 0.4 0.2 0 0 0 0.1 0 0.1 0 0.1 0 0.3-0.2 0.3 0 0-0.1 0-0.1 0C48.7 69.1 48.5 69.1 48.5 68.9L48.5 68.9zM48.8 67c-0.3 0-0.3-0.2-0.3-0.4s0.1-0.3 0.3-0.2c0.2 0 0.3 0.2 0.3 0.3C49.1 66.9 48.9 67 48.8 67zM48.8 60.5c-0.2 0-0.3-0.1-0.3-0.3s0-0.3 0.2-0.3 0.4 0.1 0.4 0.4S48.9 60.4 48.8 60.5L48.8 60.5zM48.8 58.4c-0.2 0-0.3-0.1-0.3-0.3s0-0.3 0.2-0.3 0.4 0.1 0.4 0.4S48.9 58.3 48.8 58.4L48.8 58.4zM49.9 61.6c-0.2 0-0.3-0.1-0.3-0.2 -0.1-0.3 0.1-0.3 0.3-0.3s0.3 0.1 0.3 0.3S50.2 61.5 49.9 61.6L49.9 61.6zM50.2 63.4c0 0.2 0 0.3-0.2 0.3s-0.4-0.1-0.4-0.3 0.1-0.3 0.3-0.3S50.2 63.1 50.2 63.4L50.2 63.4zM49.8 67.5c0.2 0 0.3 0 0.3 0.2s0 0.3-0.2 0.3 -0.3-0.1-0.4-0.3S49.8 67.5 49.8 67.5L49.8 67.5zM50.2 70c0 0.1-0.2 0.2-0.3 0.2 0 0 0 0-0.1 0 -0.2 0-0.2-0.2-0.2-0.3s0.3-0.2 0.4-0.2S50.2 69.8 50.2 70zM49.9 71.8c0.2 0 0.3 0.1 0.3 0.3s0 0.3-0.3 0.3 -0.3-0.1-0.3-0.4S49.8 71.8 49.9 71.8L49.9 71.8zM49.9 65.9c-0.2 0-0.3-0.1-0.3-0.4s0.2-0.2 0.3-0.2 0.3 0.1 0.3 0.3S50.2 65.9 49.9 65.9L49.9 65.9zM49.9 59.4c-0.2 0-0.3-0.1-0.3-0.4s0.2-0.2 0.3-0.2 0.3 0.1 0.3 0.3S50.2 59.4 49.9 59.4L49.9 59.4zM16.4 59.9c0.2 0 0.3 0.1 0.3 0.3 0 0.2-0.1 0.3-0.3 0.3s-0.3 0-0.3-0.2S16.1 59.8 16.4 59.9L16.4 59.9zM16.4 57.7c0.2 0 0.3 0.1 0.3 0.3 0 0.2-0.1 0.3-0.3 0.3s-0.3 0-0.3-0.2S16.1 57.7 16.4 57.7L16.4 57.7zM16.4 62c0.2 0 0.3 0.1 0.3 0.3 0 0.2-0.1 0.3-0.3 0.3s-0.3 0-0.3-0.2S16.1 62 16.4 62L16.4 62zM16.3 64.2c0.2 0 0.4 0 0.4 0.2s-0.1 0.4-0.3 0.4 -0.3-0.1-0.3-0.3S16.1 64.2 16.3 64.2L16.3 64.2zM16.4 56.2c-0.2 0-0.3 0-0.3-0.2s0-0.4 0.3-0.4c0.2 0 0.3 0.1 0.3 0.3C16.7 56 16.6 56.2 16.4 56.2L16.4 56.2zM15.6 59.2c0 0.1-0.1 0.3-0.3 0.3 0 0 0 0 0 0 -0.2 0-0.3-0.1-0.3-0.3 0-0.3 0.2-0.3 0.4-0.3S15.6 59 15.6 59.2L15.6 59.2zM15.6 61.3c0 0.2-0.1 0.3-0.3 0.3 -0.2 0-0.3-0.2-0.3-0.3 0 0 0-0.1 0-0.1 0-0.2 0.2-0.2 0.4-0.2S15.6 61.1 15.6 61.3L15.6 61.3zM15.3 63.2c0.2 0 0.3 0 0.3 0.2s0 0.3-0.2 0.3S15 63.7 15 63.5 15.2 63.2 15.3 63.2L15.3 63.2zM15.3 57.3c-0.2 0-0.3-0.1-0.3-0.4s0.2-0.2 0.3-0.2 0.3 0.1 0.3 0.3S15.6 57.2 15.3 57.3L15.3 57.3zM15.3 54.5c0.3 0 0.3 0.1 0.3 0.3s-0.1 0.3-0.3 0.3S15 55 15 54.8 15.3 54.5 15.3 54.5L15.3 54.5zM15 52.5c0-0.2 0.2-0.2 0.4-0.2s0.2 0.1 0.2 0.3 -0.1 0.3-0.3 0.3c-0.2 0-0.3-0.1-0.3-0.3C15 52.6 15 52.6 15 52.5L15 52.5zM14.2 58.3c-0.2 0-0.3 0-0.3-0.2s0.1-0.3 0.2-0.4c0.2-0.1 0.3 0 0.4 0.2 0 0 0 0.1 0 0.1C14.5 58.2 14.4 58.3 14.2 58.3 14.3 58.3 14.3 58.3 14.2 58.3L14.2 58.3zM14.2 60.5c-0.2 0-0.3-0.1-0.3-0.3s0-0.3 0.2-0.3 0.3 0.1 0.3 0.3S14.4 60.5 14.2 60.5L14.2 60.5zM14.1 56.2c-0.2 0-0.2-0.2-0.2-0.4s0.1-0.3 0.2-0.2 0.3 0.2 0.3 0.3S14.3 56.2 14.1 56.2L14.1 56.2zM13.4 54.9c0 0.1-0.2 0.2-0.3 0.2 0 0 0 0-0.1 0 -0.2 0-0.2-0.2-0.2-0.3s0.3-0.2 0.4-0.2S13.5 54.7 13.4 54.9L13.4 54.9zM13.4 57c0 0.1-0.1 0.3-0.3 0.3 0 0 0 0 0 0 -0.2 0-0.3-0.2-0.3-0.3 0 0 0-0.1 0-0.1 0-0.2 0.2-0.2 0.4-0.2S13.5 56.8 13.4 57L13.4 57zM11 43.7c0.2 0 0.3 0.1 0.3 0.3s0 0.3-0.2 0.3c-0.2 0-0.3-0.1-0.3-0.2C10.6 43.8 10.8 43.7 11 43.7zM10.7 41.7c0-0.3 0.3-0.2 0.4-0.2s0.2 0.2 0.1 0.4c0 0.1-0.2 0.2-0.3 0.2 0 0 0 0-0.1 0C10.8 42 10.7 41.9 10.7 41.7L10.7 41.7zM11 45.8c0.2 0 0.3 0 0.3 0.2s0 0.3-0.2 0.3 -0.4-0.1-0.4-0.3S10.9 45.9 11 45.8L11 45.8zM11.3 48.3c0 0.2-0.1 0.3-0.3 0.3s-0.3-0.2-0.3-0.4S10.9 48 11 48 11.3 48.1 11.3 48.3L11.3 48.3zM11 50.2c0.2 0 0.3 0.1 0.3 0.3s0 0.3-0.3 0.3 -0.3-0.1-0.3-0.4S10.9 50.2 11 50.2zM12 47.5c-0.2 0-0.3-0.1-0.3-0.3s0-0.3 0.1-0.3 0.4 0 0.4 0.2S12.3 47.5 12 47.5L12 47.5zM12 49.7c-0.2 0-0.3-0.1-0.3-0.3s0-0.3 0.2-0.3 0.4 0 0.4 0.2S12.3 49.7 12 49.7L12 49.7zM12 45.3c-0.3-0.1-0.2-0.3-0.1-0.5s0.2-0.2 0.4-0.1c0.2 0.1 0.2 0.2 0.2 0.4C12.3 45.3 12.2 45.4 12 45.3zM11.8 53.8c0-0.1 0.1-0.3 0.2-0.4 0.2-0.1 0.3 0 0.4 0.2 0 0 0 0.1 0 0.1 0 0.1-0.1 0.3-0.2 0.3 0 0 0 0-0.1 0C12 54 11.8 54 11.8 53.8L11.8 53.8zM12.1 51.8c-0.2 0-0.3-0.1-0.3-0.3s0-0.3 0.2-0.3 0.4 0.1 0.4 0.4S12.2 51.8 12.1 51.8L12.1 51.8zM13.2 52.3c0.2 0 0.3 0 0.3 0.2s0 0.3-0.2 0.3c-0.2 0-0.3 0-0.4-0.2 0 0 0-0.1 0-0.1C12.9 52.4 13 52.3 13.2 52.3L13.2 52.3zM12.9 50.5c0-0.1 0-0.2 0.2-0.3 0 0 0.1 0 0.1 0 0.2 0 0.3 0 0.3 0.2s-0.1 0.3-0.2 0.4S12.9 50.7 12.9 50.5L12.9 50.5zM13.3 48.6c-0.2 0-0.4-0.1-0.4-0.3S13 48 13.2 48s0.3 0.1 0.3 0.2S13.4 48.6 13.3 48.6L13.3 48.6zM14.1 53.4c0.2-0.1 0.3 0 0.4 0.2 0 0 0 0.1 0 0.1 0 0.1 0 0.3-0.2 0.3 0 0-0.1 0-0.1 0 -0.2 0-0.3 0-0.3-0.2S14 53.4 14.1 53.4L14.1 53.4zM14 51.6c0-0.1 0.1-0.3 0.2-0.4 0.2-0.1 0.3 0 0.4 0.2 0 0 0 0.1 0 0.1 0 0.1 0 0.3-0.2 0.3 0 0-0.1 0-0.1 0C14.1 51.8 13.9 51.8 14 51.6zM9.8 42.6c0.2 0 0.4 0 0.4 0.2s-0.1 0.4-0.3 0.4S9.6 43.1 9.7 43 9.6 42.6 9.8 42.6L9.8 42.6zM9.7 40.8c0-0.1 0-0.3 0.1-0.3s0.4 0 0.4 0.2S10.2 41 10 41 9.6 41 9.7 40.8L9.7 40.8zM9.9 44.8c0.2 0 0.4 0.1 0.4 0.4s-0.2 0.2-0.3 0.3 -0.3-0.1-0.3-0.3S9.6 44.7 9.9 44.8L9.9 44.8zM9.9 47c0.2 0 0.3 0.1 0.3 0.3 0 0.2-0.1 0.3-0.3 0.3s-0.3 0-0.4-0.2S9.6 46.9 9.9 47L9.9 47zM12 55.5L12 55.5c0.2 0 0.3 0.1 0.3 0.3 0 0.1 0 0.3-0.2 0.3 0 0 0 0 0 0C12.1 56 12.1 55.8 12 55.5zM13 58.8c0.1 0 0.2 0 0.3 0 0.2 0 0.2 0.2 0.2 0.3s-0.1 0.3-0.3 0.3L13 58.8zM14.2 62h0.1c0.2 0.1 0.2 0.2 0.2 0.4 0 0 0 0.1-0.1 0.1L14.2 62zM17.7 67.5c0.1 0.1 0.1 0.2 0 0.3L17.7 68l-0.3-0.5C17.4 67.4 17.5 67.4 17.7 67.5L17.7 67.5zM22.6 73c0-0.2 0.2-0.2 0.4-0.1 0.2 0.1 0.2 0.2 0.2 0.4 -0.1 0.1-0.2 0.2-0.4 0.2h0l-0.1-0.1C22.6 73.2 22.6 73.1 22.6 73zM24.9 75c0.2-0.1 0.3 0 0.4 0.2 0 0 0 0 0 0.1L24.9 75zM29.2 77.2c0.1 0 0.1 0 0.2 0 0.1 0 0.2 0.1 0.2 0.2L29.2 77.2zM34.5 78.3c0.1-0.1 0.2-0.1 0.3-0.1 0.1 0 0.2 0 0.2 0.1L34.5 78.3zM36.7 78.3c0-0.1 0.2-0.1 0.3-0.1 0.1 0 0.2 0 0.2 0.1L36.7 78.3zM42 77.3c0-0.1 0-0.2 0.2-0.2 0.1 0 0.1 0 0.2 0.1L42 77.3zM53.9 67.6c0-0.2 0.2-0.2 0.4-0.2 0.1 0 0.2 0 0.2 0.1L54.2 68C54 67.9 53.9 67.8 53.9 67.6 53.9 67.6 53.9 67.6 53.9 67.6L53.9 67.6zM55 66.8L55 66.8c0-0.1 0.1-0.3 0.2-0.4h0.1L55 66.8zM57.2 62.4c0-0.2 0-0.4 0.3-0.4 0.1 0 0.1 0 0.2 0.1 -0.1 0.2-0.2 0.4-0.3 0.5C57.2 62.6 57.2 62.5 57.2 62.4 57.2 62.4 57.2 62.4 57.2 62.4zM58.7 59.4C58.6 59.4 58.6 59.4 58.7 59.4c-0.2 0-0.4-0.1-0.4-0.2 -0.1-0.3 0.1-0.3 0.3-0.3 0.1 0 0.2 0.1 0.2 0.2 0 0 0 0 0 0C58.8 59.1 58.7 59.2 58.7 59.4zM59.7 56.1L59.7 56.1c0 0-0.3 0-0.3-0.2s0-0.4 0.3-0.4c0.1 0 0.2 0 0.2 0.1L59.7 56.1zM60.4 52.6c0-0.1 0-0.2 0.1-0.3l-0.1 0.4C60.4 52.7 60.4 52.7 60.4 52.6L60.4 52.6zM61.7 49.6c-0.2 0-0.3 0-0.3-0.2s0-0.4 0.3-0.4c0.1 0 0.2 0.1 0.2 0.1L61.7 49.6zM8.6 46.2l-0.7 0.4c-0.2 0.1-0.4 0.2-0.6 0.2H7c-1.9 0-4.5-3.5-5.3-9s0.9-9.9 2.8-10.2c0.6 0 1.2 0.1 1.6 0.5L7 28.7l1.3 9.6 0.7 0.3v7.2c0.3 0.7 0.4 1.5 0.4 2.3C9.2 47.8 9 47.4 8.9 47L8.6 46.2zM69.8 37.8c-0.8 5.8-3.6 9.3-5.6 9 -0.1 0-0.3-0.1-0.4-0.1l-0.7-0.3 -0.1 0.3c0 0 0-0.1-0.1-0.1 -1.3-0.9 0.2-0.7 0.4-1v-8l0.1-0.6c0 0.2 0.1 0.3 0.3 0.3v-0.6c-0.2 0-0.3 0.1-0.3 0.3 0 0 0 0 0 0l0.2-1.2c0 0 0.1 0.1 0.1 0.1v-0.3l0 0v-0.3c0 0 0 0-0.1 0l0.9-7.3 0.1 0.4 0.9-0.5c0.4-0.3 0.9-0.4 1.4-0.4C69 27.9 70.7 32.1 69.8 37.8z"/><rect x="39.3" y="28.9" class="st1" width="17" height="2"/><rect x="15.4" y="28.9" class="st1" width="17" height="2"/><path class="st1" d="M48 33.7c0-0.6-0.5-1.1-1.1-1.1s-1.1 0.5-1.1 1.1 0.5 1.1 1.1 1.1S48 34.3 48 33.7L48 33.7zM46.6 33.7c0-0.2 0.1-0.3 0.3-0.3s0.3 0.1 0.3 0.3c0 0 0 0 0 0 0 0.2-0.1 0.3-0.3 0.3 0 0 0 0 0 0C46.7 34.1 46.6 33.9 46.6 33.7 46.6 33.7 46.6 33.7 46.6 33.7L46.6 33.7z"/><path class="st1" d="M53.9 33.7c-1.6-0.9-3.3-1.6-5.1-1.9 -0.2 0-0.4 0.1-0.4 0.3 0 0.1 0 0.2 0.1 0.3 0.3 0.4 0.5 0.8 0.5 1.3 0 1.1-0.9 2.1-2 2.1 -1.1 0-2.1-0.9-2.1-2 0-0.5 0.1-0.9 0.4-1.3 0.1-0.1 0.1-0.3 0-0.4 -0.1-0.1-0.3-0.2-0.4-0.1 -1.6 0.4-2.9 1.3-3.8 2.7 -0.1 0.1-0.1 0.3 0.1 0.5 1.3 1.3 3.1 1.9 4.9 1.9 2.8-0.2 5.6-1 8-2.5 0.2-0.1 0.2-0.3 0.1-0.5C54.1 33.8 54.1 33.8 53.9 33.7L53.9 33.7zM41.8 34.7c0.6-0.8 1.4-1.4 2.4-1.8 -0.1 0.3-0.1 0.5-0.1 0.8 0 1 0.5 1.9 1.4 2.4C44.1 36.1 42.9 35.6 41.8 34.7zM48.8 35.7c0.8-0.8 1.1-2 0.7-3 1.2 0.3 2.4 0.8 3.5 1.4C51.7 34.8 50.3 35.4 48.8 35.7L48.8 35.7z"/><rect x="33.3" y="29.9" class="st1" width="1" height="18.3"/><line class="st0" x1="14.7" y1="49.3" x2="14.7" y2="49.3"/><polygon points="16.9 53.6 16.9 53.6 16.9 53.6 "/><path d="M63.8 38.2c-0.2 0-0.3 0.1-0.3 0.3 0 0 0 0 0 0h0.3V38.2z"/></svg>