<svg xmlns="http://www.w3.org/2000/svg" viewBox="0 0 72.5 85"><style>.st0{fill:#00b4b1;}</style><path class="st0" d="M72.4 40.7c-0.4-5.4-1.6-9.5-3.9-12.5 -2.6-3.5-8.3-4.5-13.7-4.3l-0.1-1.5c4.2-2 5.9-7 3.9-11.2s-7-5.9-11.2-3.9c0 0 0 0 0 0 -2.1-4.8-7.6-7-12.4-5 -1.2 0.5-2.3 1.3-3.3 2.3C29 0.1 23.1-1.4 18.5 1.4c-1.7 1-3.1 2.6-3.9 4.4 -4.5-2.1-9.9-0.1-12 4.4S2.5 20 7 22.1L3.8 75.5C0.2 76.2 0 78.2 0 79.2 0 81.9 12.8 85 30.9 85s30.9-3.2 30.9-5.8c0-1-0.2-2.9-3.8-3.7l-0.8-13.8c5.5-0.5 10.1-3.1 12.2-7C71.6 50.3 72.7 45.5 72.4 40.7zM51.7 19.7H27.6c-0.9 0-1.7 0.8-1.7 1.7 0 0 0 0 0 0v8.9c0 1.1-0.9 2-2 2 -1.1 0-2-0.9-2-2v-8.9c0-0.9-0.8-1.7-1.7-1.7 0 0 0 0 0 0h-0.7c-0.9 0-1.7 0.8-1.7 1.7 0 0 0 0 0 0v18.9c0 1.4-1.2 2.6-2.6 2.6 -1.4 0-2.6-1.2-2.6-2.6V21.4c0-0.9-0.7-1.7-1.6-1.7 -1.9 0-3.7-1.1-4.7-2.7 -0.1-0.2-0.2-0.4-0.3-0.6 0-0.1-0.1-0.2-0.1-0.3 -0.1-0.3-0.2-0.5-0.3-0.8 0 0 0-0.1 0-0.1 -0.1-0.3-0.1-0.7-0.1-1 0-3.1 2.5-5.7 5.7-5.7l0 0c1.3 0 2.5 0.4 3.5 1.2 0.7 0.6 1.8 0.5 2.4-0.3 0.2-0.2 0.3-0.5 0.3-0.7 0.6-3.4 3.9-5.7 7.3-5.1 2.7 0.5 4.8 2.6 5.2 5.4 0.2 0.9 1 1.5 1.9 1.4 0.6-0.1 1.1-0.6 1.3-1.2 1.1-3.2 4.5-4.9 7.7-3.8 2.3 0.8 3.9 2.8 4.1 5.2 0.1 0.9 0.9 1.6 1.8 1.5 0.5 0 0.9-0.3 1.2-0.6 1.8-2.1 4.9-2.4 7-0.7 1.2 1 1.8 2.4 1.8 3.9 0 0.3 0 0.6-0.1 0.9v0.2c-0.1 0.3-0.1 0.5-0.2 0.8l-0.1 0.2c-0.1 0.2-0.2 0.4-0.3 0.5s-0.2 0.3-0.3 0.4 -0.2 0.2-0.3 0.4 -0.2 0.2-0.3 0.3c-0.1 0.1-0.3 0.3-0.5 0.4l0 0C53.8 19.4 52.7 19.7 51.7 19.7L51.7 19.7zM62.5 50.9c-1.5 1.8-3.6 2.8-5.9 3l-1.3-22.1c3 0 5.5 0.8 6.5 1.7 2 2 2.6 4 2.9 7.8S64.1 49.3 62.5 50.9z"/></svg>